<svg width="287" height="21" viewBox="0 0 287 21" fill="none" xmlns="http://www.w3.org/2000/svg">
    <g clip-path="url(#clip0_869_18716)">
        <path d="M105.707 0.145385V3.47188H94.9319V8.68677H105.199V12.1198H94.8866V17.5138H105.918V20.8452H90.9712V0.130859L105.707 0.145385Z" fill="#E8B909" />
        <path d="M108.993 20.8596V0.145264H112.979L124.348 15.238V0.145264H128.188V20.8596H124.197L112.838 5.44732V20.8596H108.993Z" fill="#E8B909" />
        <path d="M149.245 19.901C147.175 20.6969 144.956 21.0728 142.728 21.005C135.132 21.005 131.333 17.4073 131.333 10.212C131.333 3.40409 135.192 0.000114948 142.909 0.000114948C145.063 -0.0340452 147.205 0.310556 149.23 1.01695V4.49355C147.322 3.70676 145.266 3.31098 143.191 3.33145C138.02 3.33145 135.435 5.62498 135.435 10.212C135.435 15.1864 137.874 17.6736 142.753 17.6736C143.588 17.6583 144.419 17.5411 145.224 17.325V11.3015H149.21L149.245 19.901Z" fill="#E8B909" />
        <path d="M167.131 0.145385V3.47188H156.356V8.68677H166.623V12.1198H156.311V17.5138H167.342V20.8452H152.395V0.130859L167.131 0.145385Z" fill="#E8B909" />
        <path d="M170.417 20.8596V0.145264H174.403L185.772 15.238V0.145264H189.607V20.8596H185.621L174.237 5.44732V20.8596H170.417Z" fill="#E8B909" />
        <path d="M193.508 20.8596V0.145264H197.498V8.69149H208.112V0.145264H212.103V20.8596H208.112V12.0228H197.498V20.8596H193.508Z" fill="#E8B909" />
        <path d="M218.213 20.8596H214.121L223.256 0.145264H227.549L236.884 20.8596H232.616L230.161 15.2089H223.014L224.383 11.8776H228.716L225.329 4.10122L218.213 20.8596Z" fill="#E8B909" />
        <path d="M238.897 20.8305V0.145264H248.686C253.081 0.145264 255.279 1.99493 255.279 5.69426C255.279 8.19276 253.568 10.2635 250.146 11.9066L256.965 20.8596H251.932L245.39 11.834V10.0812C249.201 9.45815 251.107 8.03459 251.107 5.81047C251.107 4.28684 250.214 3.52341 248.429 3.52018H242.964V20.8305H238.897Z" fill="#E8B909" />
        <path d="M262.219 0.145264V20.8596H258.228V0.145264H262.219Z" fill="#E8B909" />
        <path d="M268.349 20.8596H264.252L273.392 0.145264H277.679L287.015 20.8596H282.722L280.271 15.2089H273.12L274.489 11.8776H278.827L275.44 4.10122L268.349 20.8596Z" fill="#E8B909" />
        <path d="M12.0382 20.022C10.672 20.3149 9.27576 20.4578 7.87613 20.4481C2.6287 20.4481 0.00335514 17.8511 0 12.6572C0 7.84423 2.62534 5.43772 7.87613 5.43772C9.27576 5.42798 10.672 5.57093 12.0382 5.86382V7.15181C10.7157 6.87197 9.36612 6.72752 8.01202 6.72087C3.79797 6.72087 1.69098 8.69966 1.69098 12.6572C1.69098 16.9957 3.79797 19.165 8.01202 19.165C9.36612 19.1583 10.7157 19.0139 12.0382 18.734V20.022Z" fill="#4D4E50" />
        <path d="M14.1973 16.2016C14.1973 13.2189 16.259 11.7276 20.3825 11.7276C21.9421 11.7347 23.4999 11.8301 25.0478 12.0133V10.1684C25.0478 7.8733 23.538 6.72412 20.5184 6.72089C18.8472 6.73182 17.1863 6.97314 15.5863 7.43752V6.14953C17.1865 5.68666 18.8474 5.44696 20.5184 5.43774C24.5445 5.43774 26.5576 6.99043 26.5576 10.0958V20.4481H25.6064L25.2692 18.9665C23.5325 19.9029 21.5828 20.4134 19.5923 20.453C15.9956 20.4497 14.1973 19.0326 14.1973 16.2016ZM20.3825 13.0156C17.2958 13.0156 15.754 14.0631 15.7574 16.1581C15.7574 18.1627 17.0458 19.165 19.6225 19.165C21.5346 19.1642 23.4102 18.662 25.0478 17.7124V13.3109C23.4936 13.1214 21.9289 13.0227 20.3623 13.0156H20.3825Z" fill="#4D4E50" />
        <path d="M30.7346 20.4481V5.43774H31.8519L32.0431 7.35035C33.7538 6.16494 35.7939 5.49887 37.9012 5.43774C41.6958 5.43774 43.5932 7.01464 43.5932 10.1684V20.4481H42.0331V10.1249C42.0331 7.89106 40.6306 6.77577 37.8257 6.779C35.8156 6.82352 33.8741 7.49089 32.2897 8.68192V20.4481H30.7346Z" fill="#4D4E50" />
        <path d="M46.8445 16.2016C46.8445 13.2189 48.9062 11.7276 53.0297 11.7276C54.5893 11.7347 56.1471 11.8301 57.695 12.0133V10.1684C57.695 7.8733 56.1852 6.72412 53.1656 6.72089C51.4945 6.73215 49.8336 6.97347 48.2335 7.43752V6.14953C49.8338 5.68699 51.4947 5.4473 53.1656 5.43774C57.2119 5.43774 59.225 6.99043 59.2048 10.0958V20.4481H58.2536L57.8963 18.9616C56.1603 19.8997 54.2102 20.4104 52.2194 20.4481C48.6395 20.4481 46.8478 19.0326 46.8445 16.2016ZM53.0297 13.0156C49.9497 13.0156 48.4096 14.0631 48.4096 16.1581C48.4096 18.1627 49.6964 19.165 52.2698 19.165C54.1819 19.1647 56.0576 18.6624 57.695 17.7124V13.3109C56.1475 13.1221 54.5896 13.0235 53.0297 13.0156Z" fill="#4D4E50" />
        <path d="M65.2641 0V20.448H63.699V0H65.2641Z" fill="#4D4E50" />
        <path d="M76.8192 19.9058C75.5768 20.3011 74.2722 20.4846 72.9641 20.4481C70.0552 20.4481 68.5991 18.8841 68.5957 15.7561C68.5957 12.8509 70.0787 11.3983 73.0447 11.3983C74.0061 11.4019 74.9614 11.5455 75.8781 11.8244V8.12988H76.8192V19.9058ZM75.8781 12.7444C74.973 12.4278 74.0177 12.264 73.0547 12.2602C70.7497 12.2602 69.5972 13.398 69.5972 15.6738C69.5972 18.3079 70.7497 19.6233 73.0547 19.6201C74.0066 19.623 74.9552 19.5107 75.8781 19.286V12.7444Z" fill="#4D4E50" />
        <path d="M78.7769 17.8962C78.7769 16.1014 80.0166 15.204 82.496 15.204C83.4332 15.2079 84.3694 15.2661 85.2993 15.3783V14.2646C85.2993 12.883 84.3967 12.1939 82.5917 12.1971C81.5875 12.2018 80.5892 12.3453 79.6274 12.6232V11.8485C80.5892 11.5706 81.5875 11.4271 82.5917 11.4224C85.0208 11.4224 86.237 12.3569 86.2404 14.2259V20.448H85.6616L85.4452 19.557C84.4011 20.119 83.2292 20.425 82.0331 20.448C79.864 20.448 78.7769 19.6006 78.7769 17.8962ZM82.496 15.9594C80.6373 15.9594 79.7096 16.5905 79.713 17.8526C79.713 19.0534 80.488 19.6587 82.0381 19.6587C83.1883 19.6559 84.3158 19.3512 85.2993 18.7774V16.1288C84.3687 16.027 83.4327 15.9769 82.496 15.9787V15.9594Z" fill="#4D4E50" />
    </g>
    <defs>
        <clipPath id="clip0_869_18716">
            <rect width="287" height="21" fill="white" />
        </clipPath>
    </defs>
</svg>
    