<svg width="80" height="54" viewBox="0 0 80 54" fill="none" xmlns="http://www.w3.org/2000/svg">
    <g clip-path="url(#clip0_894_19650)">
        <path d="M11.4583 19.614C10.1581 19.9013 8.82926 20.0416 7.49714 20.0322C2.49708 20.0322 -0.0019814 17.4873 1.17869e-06 12.3976C1.17869e-06 7.68484 2.49906 5.32849 7.49714 5.32849C8.82938 5.31999 10.1583 5.46127 11.4583 5.74967V7.01033C10.204 6.73724 8.92411 6.59604 7.63988 6.58912C3.63111 6.58912 1.62673 8.52725 1.62673 12.4035C1.62673 16.6548 3.63111 18.7794 7.63988 18.7774C8.92401 18.7715 10.2039 18.6314 11.4583 18.3592V19.614Z" fill="white" />
        <path d="M13.4954 15.8729C13.4954 12.9471 15.4571 11.4851 19.3807 11.4871C20.8649 11.4938 22.3475 11.5872 23.8207 11.7669V9.96137C23.8207 7.70907 22.3922 6.5829 19.5353 6.5829C17.9443 6.5932 16.363 6.82928 14.8396 7.28392V6.02329C16.363 5.56865 17.9443 5.33257 19.5353 5.32227C23.3835 5.32227 25.3076 6.84507 25.3076 9.89068V20.0319H24.4154L24.0764 18.5768C22.4232 19.4939 20.5674 19.9937 18.6729 20.0319C15.2212 20.0319 13.4954 18.6456 13.4954 15.8729ZM19.3807 12.7478C16.4464 12.7478 14.9793 13.7757 14.9793 15.8317C14.9793 17.7953 16.2055 18.7771 18.658 18.7771C20.4781 18.7754 22.2632 18.2814 23.8207 17.3486V13.0423C22.3478 12.8577 20.8652 12.7593 19.3807 12.7478Z" fill="white" />
        <path d="M29.2539 20.0319V5.32227H30.3126L30.497 7.20147C32.3943 5.95063 34.252 5.32423 36.07 5.32227C39.6843 5.32227 41.4904 6.86863 41.4884 9.96137V20.0319H40.0015V9.91718C40.0015 7.73165 38.6672 6.63888 35.9987 6.63888C34.2143 6.63888 32.4598 7.26036 30.7349 8.50335V20.0319H29.2539Z" fill="white" />
        <path d="M44.5872 15.8729C44.5872 12.9471 46.5479 11.4851 50.4695 11.4871C51.9547 11.4938 53.4383 11.5872 54.9124 11.7669V9.96137C54.9124 7.70907 53.484 6.5829 50.6271 6.5829C49.036 6.5932 47.4548 6.82928 45.9314 7.28392V6.02329C47.4548 5.56865 49.036 5.33257 50.6271 5.32227C54.4713 5.32227 56.3944 6.84507 56.3964 9.89068V20.0319H55.5042L55.1652 18.5768C53.5118 19.4936 51.6561 19.9933 49.7617 20.0319C46.31 20.0319 44.5852 18.6456 44.5872 15.8729ZM50.4695 12.7478C47.5372 12.7478 46.0711 13.7757 46.0711 15.8317C46.0711 17.7953 47.2973 18.7771 49.7498 18.7771C51.5699 18.7754 53.355 18.2814 54.9124 17.3486V13.0423C53.4386 12.8577 51.955 12.7593 50.4695 12.7478Z" fill="white" />
        <path d="M62.1122 0V20.0292H60.6252V0H62.1122Z" fill="white" />
        <path d="M73.2642 19.8877C72.3756 20.1783 71.4428 20.3138 70.5074 20.2882C68.4257 20.2882 67.3838 19.1356 67.3818 16.8303C67.3818 14.7036 68.4435 13.6403 70.5668 13.6403C71.254 13.6445 71.9367 13.7507 72.5921 13.9555V11.2339H73.2642V19.8877ZM72.5921 14.6153C71.944 14.3866 71.2608 14.271 70.5728 14.2736C68.9213 14.2736 68.0965 15.1111 68.0985 16.7861C68.0985 18.7242 68.9233 19.6933 70.5728 19.6933C71.2537 19.6954 71.9322 19.6123 72.5921 19.4458V14.6153Z" fill="white" />
        <path d="M74.6649 18.4064C74.6649 17.0868 75.5511 16.426 77.3235 16.4241C77.9946 16.4279 78.6648 16.4702 79.3309 16.5507V15.7348C79.3309 14.7196 78.6846 14.2111 77.3919 14.2091C76.6733 14.2131 75.9592 14.3202 75.2716 14.5272V13.9558C75.9596 13.7513 76.6736 13.6452 77.3919 13.6406C79.1307 13.6406 80 14.3279 80 15.7024V20.2885H79.5926L79.438 19.6287C78.6911 20.0437 77.8526 20.2703 76.9964 20.2885C75.4421 20.2885 74.6649 19.6611 74.6649 18.4064ZM77.3235 16.9955C75.9972 16.9955 75.334 17.4599 75.334 18.3887C75.334 19.2743 75.8882 19.7171 76.9964 19.7171C77.8193 19.7158 78.6262 19.4928 79.3309 19.072V17.1221C78.6649 17.0402 77.9946 16.9979 77.3235 16.9955Z" fill="white" />
        <path d="M20.0617 24.3501V28.9774H5.39157V36.2851H19.3687V41.0951H5.33211V48.7061H20.3531V53.3747H0.00292969V24.3501H20.0617Z" fill="#E8B909" />
        <path d="M24.5314 53.3747V24.3501H29.9617L45.4258 45.4985V24.3501H50.6509V53.3747H45.2206L29.7565 31.7785V53.3747H24.5314Z" fill="#E8B909" />
        <path d="M79.3308 52.0347C76.9656 53.0637 74.0076 53.5782 70.4568 53.5782C60.1137 53.5782 54.9421 48.5375 54.9421 38.4562C54.9421 28.9148 60.2029 24.1451 70.7245 24.1471C73.6564 24.1008 76.5724 24.5818 79.3308 25.5668V30.4386C76.7402 29.343 73.9487 28.7904 71.1319 28.8156C64.0957 28.8156 60.5776 32.0292 60.5776 38.4562C60.5776 45.4251 63.8975 48.9096 70.5371 48.9096C71.6747 48.8885 72.8049 48.7242 73.9005 48.4206V39.979H79.3308V52.0347Z" fill="#E8B909" />
    </g>
    <defs>
        <clipPath id="clip0_894_19650">
            <rect width="80" height="53.578" fill="white" />
        </clipPath>
    </defs>
</svg>