<svg width="143" height="97" viewBox="0 0 143 97" fill="none" xmlns="http://www.w3.org/2000/svg">
    <g clip-path="url(#clip0_872_19047)">
        <path d="M20.4817 35.5098C18.1577 36.0301 15.7823 36.2841 13.4011 36.267C4.46354 36.267 -0.00354175 31.6597 2.10691e-06 22.4449C2.10691e-06 13.9128 4.46708 9.64671 13.4011 9.64671C15.7825 9.63132 18.1579 9.88711 20.4817 10.4092V12.6916C18.2397 12.1972 15.9519 11.9415 13.6563 11.929C6.49061 11.929 2.90779 15.4379 2.90779 22.4556C2.90779 30.1523 6.49061 33.9989 13.6563 33.9953C15.9517 33.9847 18.2395 33.7308 20.4817 33.2381V35.5098Z" fill="white" />
        <path d="M24.123 28.7374C24.123 23.4403 27.6297 20.7936 34.643 20.7971C37.2961 20.8092 39.9463 20.9784 42.5795 21.3037V18.0349C42.5795 13.9572 40.0261 11.9184 34.9194 11.9184C32.0755 11.937 29.2489 12.3644 26.5258 13.1875V10.9052C29.2489 10.0821 32.0755 9.65471 34.9194 9.63605C41.7981 9.63605 45.2374 12.393 45.2374 17.9069V36.267H43.6427L43.0367 33.6327C40.0815 35.2931 36.7642 36.1978 33.3779 36.267C27.208 36.267 24.123 33.7571 24.123 28.7374ZM34.643 23.0795C29.3981 23.0795 26.7756 24.9406 26.7756 28.6627C26.7756 32.2178 28.9675 33.9953 33.3512 33.9953C36.6047 33.9922 39.7956 33.0979 42.5795 31.409V23.6128C39.9468 23.2785 37.2967 23.1004 34.643 23.0795Z" fill="white" />
        <path d="M52.2913 36.267V9.63605H54.1837L54.5133 13.0382C57.9048 10.7737 61.2254 9.6396 64.4751 9.63605C70.9355 9.63605 74.164 12.4357 74.1604 18.0349V36.267H71.5025V17.9549C71.5025 13.9981 69.1175 12.0197 64.3475 12.0197C61.158 12.0197 58.0217 13.1449 54.9386 15.3952V36.267H52.2913Z" fill="white" />
        <path d="M79.6997 28.7374C79.6997 23.4403 83.2046 20.7936 90.2143 20.7971C92.8692 20.8092 95.5211 20.9784 98.1561 21.3037V18.0349C98.1561 13.9572 95.6027 11.9184 90.496 11.9184C87.6521 11.937 84.8255 12.3644 82.1025 13.1875V10.9052C84.8255 10.0821 87.6521 9.65471 90.496 9.63605C97.3676 9.63605 100.805 12.393 100.809 17.9069V36.267H99.2139L98.6079 33.6327C95.6525 35.2925 92.3355 36.1972 88.9492 36.267C82.7793 36.267 79.6962 33.7571 79.6997 28.7374ZM90.2143 23.0795C84.973 23.0795 82.3523 24.9406 82.3523 28.6627C82.3523 32.2178 84.5442 33.9953 88.9279 33.9953C92.1813 33.9922 95.3721 33.0979 98.1561 31.409V23.6128C95.5216 23.2785 92.8698 23.1004 90.2143 23.0795V23.0795Z" fill="white" />
        <path d="M111.026 0V36.2617H108.368V0H111.026Z" fill="white" />
        <path d="M130.96 36.0057C129.371 36.5319 127.704 36.7772 126.032 36.7309C122.311 36.7309 120.449 34.6441 120.445 30.4704C120.445 26.6203 122.343 24.6953 126.138 24.6953C127.367 24.7028 128.587 24.8951 129.758 25.2658V20.3385H130.96V36.0057ZM129.758 26.4603C128.6 26.0463 127.379 25.837 126.149 25.8417C123.197 25.8417 121.723 27.358 121.726 30.3905C121.726 33.8993 123.2 35.6537 126.149 35.6537C127.366 35.6577 128.579 35.5071 129.758 35.2058V26.4603Z" fill="white" />
        <path d="M133.463 33.3235C133.463 30.9345 135.047 29.7381 138.216 29.7346C139.415 29.7416 140.613 29.8182 141.804 29.9639V28.4868C141.804 26.6488 140.649 25.7281 138.338 25.7245C137.053 25.7317 135.777 25.9257 134.548 26.3004V25.2659C135.778 24.8957 137.054 24.7036 138.338 24.6953C141.446 24.6953 143 25.9396 143 28.4281V36.731H142.272L141.995 35.5365C140.66 36.2878 139.161 36.698 137.631 36.731C134.853 36.731 133.463 35.5951 133.463 33.3235ZM138.216 30.7691C135.845 30.7691 134.659 31.6099 134.659 33.2915C134.659 34.8948 135.65 35.6964 137.631 35.6964C139.102 35.6941 140.544 35.2904 141.804 34.5286V30.9984C140.613 30.85 139.415 30.7735 138.216 30.7691V30.7691Z" fill="white" />
        <path d="M35.8604 44.0846V52.4621H9.63757V65.6923H34.6218V74.4004H9.53128V88.1799H36.3813V96.632H0.00537109V44.0846H35.8604Z" fill="#E8B909" />
        <path d="M43.8499 96.632V44.0846H53.5565L81.1986 82.3727V44.0846H90.5385V96.632H80.8318L53.1897 57.5334V96.632H43.8499Z" fill="#E8B909" />
        <path d="M141.804 94.2057C137.576 96.0685 132.289 97 125.942 97C107.453 97 98.2092 87.8741 98.2092 69.6224C98.2092 52.3484 107.613 43.7131 126.42 43.7166C131.661 43.6328 136.873 44.5037 141.804 46.287V55.1071C137.173 53.1236 132.183 52.1232 127.148 52.1688C114.571 52.1688 108.283 57.9867 108.283 69.6224C108.283 82.2393 114.217 88.5478 126.085 88.5478C128.119 88.5097 130.139 88.2122 132.097 87.6626V72.3794H141.804V94.2057Z" fill="#E8B909" />
    </g>
    <defs>
        <clipPath id="clip0_872_19047">
            <rect width="143" height="97" fill="white" />
        </clipPath>
    </defs>
</svg>
    