<svg width="160" height="108" viewBox="0 0 160 108" fill="none" xmlns="http://www.w3.org/2000/svg">
    <g clip-path="url(#clip0_939_19210)">
        <path d="M22.9166 39.4824C20.3165 40.0629 17.6588 40.3473 14.9943 40.3302C4.99813 40.3302 0 35.2054 0 24.9559C0 15.4692 4.99813 10.7258 14.9943 10.7258C17.6588 10.7087 20.3165 10.9932 22.9166 11.5737V14.1114C20.408 13.5617 17.8482 13.2775 15.2798 13.2635C7.26222 13.2635 3.25339 17.1649 3.25339 24.9677C3.25339 33.5255 7.26222 37.8044 15.2798 37.8044C17.8482 37.7905 20.408 37.5063 22.9166 36.9565V39.4824Z" fill="#4D4E50" />
        <path d="M26.9907 31.9525C26.9907 26.0707 30.9143 23.1279 38.7613 23.1239C41.7298 23.1373 44.695 23.3254 47.6412 23.6872V20.0526C47.6412 15.5227 44.7844 13.2558 39.0706 13.2518C35.8886 13.2726 32.7259 13.7478 29.6791 14.663V12.1016C32.7259 11.1864 35.8886 10.7112 39.0706 10.6904C46.767 10.6904 50.6131 13.7558 50.6092 19.8866V40.3067H48.8248L48.1469 37.3421C44.8435 39.2002 41.1317 40.2184 37.3398 40.3067C30.4444 40.3225 26.9947 37.5378 26.9907 31.9525ZM38.7613 25.6616C32.8929 25.6616 29.9586 27.7309 29.9586 31.8695C29.9586 35.8223 32.4111 37.7987 37.316 37.7987C40.9567 37.7931 44.5268 36.7967 47.6412 34.9171V26.2308C44.6951 25.8671 41.73 25.677 38.7613 25.6616Z" fill="#4D4E50" />
        <path d="M58.5078 40.3302V10.6843H60.6074L60.9761 14.4671C64.7708 11.9492 68.4861 10.6883 72.1222 10.6843C79.3467 10.6843 82.9589 13.7971 82.9589 20.0228V40.3006H79.9851V19.9398C79.9851 15.5403 77.3146 13.3406 71.9735 13.3406C68.4049 13.3406 64.8977 14.5897 61.452 17.0878V40.3006L58.5078 40.3302Z" fill="#4D4E50" />
        <path d="M89.1565 31.9525C89.1565 26.0707 93.078 23.1279 100.921 23.1239C103.892 23.1374 106.859 23.3254 109.807 23.6872V20.0526C109.807 15.5227 106.95 13.2558 101.236 13.2518C98.0543 13.2726 94.8917 13.7478 91.8449 14.663V12.1016C94.8917 11.1864 98.0543 10.7112 101.236 10.6904C108.929 10.6904 112.775 13.7558 112.775 19.8866V40.3067H110.991L110.313 37.3421C107.009 39.1995 103.297 40.2177 99.5056 40.3067C92.6062 40.3225 89.1565 37.5378 89.1565 31.9525ZM100.921 25.6616C95.0567 25.6616 92.1244 27.7309 92.1244 31.8695C92.1244 35.8223 94.5768 37.7987 99.4817 37.7987C103.122 37.7922 106.692 36.7959 109.807 34.9171V26.2308C106.865 25.8678 103.904 25.6777 100.939 25.6616H100.921Z" fill="#4D4E50" />
        <path d="M124.248 0V40.3185H121.274V0H124.248Z" fill="#4D4E50" />
        <path d="M146.528 40.034C144.752 40.622 142.886 40.8949 141.015 40.8403C136.851 40.8403 134.768 38.52 134.764 33.8795C134.764 29.5986 136.887 27.4582 141.134 27.4582C142.508 27.4666 143.873 27.6804 145.184 28.0926V22.614H146.528V40.034ZM145.184 29.4207C143.888 28.9604 142.522 28.7276 141.146 28.7329C137.843 28.7329 136.193 30.4188 136.197 33.7905C136.197 37.6919 137.847 39.6426 141.146 39.6426C142.507 39.647 143.864 39.4796 145.184 39.1446V29.4207Z" fill="#4D4E50" />
        <path d="M149.324 37.0515C149.324 34.3952 151.098 33.067 154.647 33.067C155.989 33.0719 157.33 33.157 158.662 33.322V31.6678C158.662 29.6222 157.365 28.5965 154.784 28.5965C153.347 28.6045 151.918 28.8202 150.543 29.2368V28.1103C151.919 27.6987 153.347 27.4851 154.784 27.4758C158.265 27.4758 160.004 28.8593 160 31.6263V40.8521H159.185L158.876 39.5239C157.382 40.3593 155.705 40.8154 153.993 40.8521C150.884 40.8442 149.328 39.5773 149.324 37.0515ZM154.647 34.2114C151.994 34.2114 150.668 35.1462 150.668 37.0159C150.668 38.7986 151.776 39.69 153.993 39.69C155.638 39.6874 157.252 39.2385 158.662 38.3915V34.4663C157.33 34.3013 155.989 34.2162 154.647 34.2114Z" fill="#4D4E50" />
        <path d="M40.1235 49.0166V58.3491H10.7773V73.0594H38.7317V82.7418H10.6465V98.0747H40.6885V107.472H0V49.0462L40.1235 49.0166Z" fill="#E8B909" />
        <path d="M49.0627 107.443V49.0166H59.9233L90.8515 91.5881V49.0166H101.302V107.443H90.4412L59.513 63.97V107.443H49.0627Z" fill="#E8B909" />
        <path d="M158.662 104.745C153.935 106.816 148.019 107.852 140.914 107.852C120.227 107.852 109.884 97.7051 109.884 77.4115C109.884 58.2089 120.404 48.6075 141.443 48.6075C147.309 48.5139 153.143 49.4822 158.662 51.4654V61.2722C153.48 59.0696 147.897 57.9574 142.264 58.0053C128.191 58.0053 121.155 64.474 121.155 77.4115C121.155 91.44 127.795 98.4542 141.074 98.4542C143.347 98.412 145.606 98.0812 147.795 97.4699V80.4769H158.662V104.745Z" fill="#E8B909" />
    </g>
    <defs>
        <clipPath id="clip0_939_19210">
            <rect width="160" height="107.852" fill="white" />
        </clipPath>
    </defs>
</svg>
    