<svg width="20" height="21" viewBox="0 0 20 21" fill="none" xmlns="http://www.w3.org/2000/svg">
    <path fill-rule="evenodd" clip-rule="evenodd" d="M10.0002 13.4484C9.81025 13.4484 9.62108 13.3842 9.46692 13.2551L4.46692 9.08839C4.11358 8.79422 4.06525 8.26839 4.36025 7.91506C4.65442 7.56172 5.17942 7.51422 5.53358 7.80839L10.0094 11.5384L14.4778 7.94256C14.8361 7.65422 15.3611 7.71089 15.6494 8.06922C15.9377 8.42756 15.8811 8.95173 15.5228 9.24089L10.5228 13.2642C10.3703 13.3867 10.1852 13.4484 10.0002 13.4484Z" fill="#E6B721" />
    <mask id="mask0_1025_19500" style="mask-type:alpha" maskUnits="userSpaceOnUse" x="4" y="7" width="12" height="7">
        <path fill-rule="evenodd" clip-rule="evenodd" d="M10.0002 13.4484C9.81025 13.4484 9.62108 13.3842 9.46692 13.2551L4.46692 9.08839C4.11358 8.79422 4.06525 8.26839 4.36025 7.91506C4.65442 7.56172 5.17942 7.51422 5.53358 7.80839L10.0094 11.5384L14.4778 7.94256C14.8361 7.65422 15.3611 7.71089 15.6494 8.06922C15.9377 8.42756 15.8811 8.95173 15.5228 9.24089L10.5228 13.2642C10.3703 13.3867 10.1852 13.4484 10.0002 13.4484Z" fill="white" />
    </mask>
    <g mask="url(#mask0_1025_19500)">
        <rect y="0.115112" width="20" height="20" fill="#E6B721" />
    </g>
</svg>