<svg width="60" height="54" viewBox="0 0 60 54" fill="none" xmlns="http://www.w3.org/2000/svg">
    <g clip-path="url(#clip0_972_19223)">
        <path d="M58.619 23.9698H59.9998L56.7635 9.28803H46.3968V10.6904H55.6417L58.2846 22.5566H47.0656V19.1802H50.0969L44.5198 13.8619V4.74649H38.5219V8.07983L30.0538 0L20.345 9.28803H3.27921L0.0429688 23.9698H1.43453V51.37H12.988V53.1931H47.1088V51.37H58.6621L58.619 23.9698ZM57.2167 23.9698V46.6235H47.0656V23.9698H57.2167ZM39.8704 6.14886H43.1066V12.5027L39.8704 9.41748V6.14886ZM46.5909 17.7562H13.4086L29.9998 1.92017L46.5909 17.7562ZM4.40109 10.6904H18.7916L9.91348 19.1802H12.9448V22.589H1.74734L4.40109 10.6904ZM12.9448 23.9698V46.6235H2.79376V23.9698H12.9448ZM2.79376 49.9676V47.9827H12.9448V49.9676H2.79376ZM33.3223 51.7907H26.6557V41.9417H33.29L33.3223 51.7907ZM34.7247 51.7907V40.5394H25.2856V51.7907H14.3472V19.1802H45.6309V51.7907H34.7247ZM47.0656 49.9676V47.9827H57.2167V49.9676H47.0656Z" fill="#F25757" />
        <path d="M18.3174 27.9611H23.7111V22.5674H18.3174V27.9611ZM19.7197 23.9698H22.3411V26.5587H19.7521L19.7197 23.9698Z" fill="#F25757" />
        <path d="M27.3032 27.9611H32.697V22.5674H27.3032V27.9611ZM28.7056 23.9698H31.3054V26.5587H28.7056V23.9698Z" fill="#F25757" />
        <path d="M41.6936 22.5674H36.2998V27.9611H41.6936V22.5674ZM40.2912 26.5587H37.6914V23.9698H40.2912V26.5587Z" fill="#F25757" />
        <path d="M18.3174 37.1953H23.7111V31.8015H18.3174V37.1953ZM19.7197 33.1931H22.3411V35.7929H19.7521L19.7197 33.1931Z" fill="#F25757" />
        <path d="M27.3032 37.1953H32.697V31.8015H27.3032V37.1953ZM28.7056 33.2039H31.3054V35.7929H28.7056V33.2039Z" fill="#F25757" />
        <path d="M41.6936 31.7908H36.2998V37.1845H41.6936V31.7908ZM40.2912 35.7929H37.6914V33.2039H40.2912V35.7929Z" fill="#F25757" />
        <path d="M37.3462 48.6083H42.7399V43.2146H37.3462V48.6083ZM38.7486 44.617H41.3484V47.2275H38.7486V44.617Z" fill="#F25757" />
        <path d="M17.2598 48.6083H22.6535V43.2146H17.2598V48.6083ZM18.6622 44.617H21.2619V47.2275H18.6729L18.6622 44.617Z" fill="#F25757" />
        <path d="M54.8435 26.6667H49.4497V32.0605H54.8435V26.6667ZM53.4411 30.6581H50.8413V28.0691H53.4411V30.6581Z" fill="#F25757" />
        <path d="M54.8435 41.3483V35.9546H49.4497V41.3483H54.8435ZM50.8413 37.3462H53.4411V39.946H50.8413V37.3462Z" fill="#F25757" />
        <path d="M10.5607 26.6667H5.16699V32.0605H10.5607V26.6667ZM9.15838 30.6581H6.56935V28.0691H9.15838V30.6581Z" fill="#F25757" />
        <path d="M10.5607 41.3483V35.9546H5.16699V41.3483H10.5607ZM6.56935 37.3462H9.15838V39.946H6.56935V37.3462Z" fill="#F25757" />
    </g>
    <defs>
        <clipPath id="clip0_972_19223">
            <rect width="60" height="53.1931" fill="white" />
        </clipPath>
    </defs>
</svg>
    