<svg width="60" height="61" viewBox="0 0 60 61" fill="none" xmlns="http://www.w3.org/2000/svg">
    <g clip-path="url(#clip0_870_18311)">
        <path d="M52.6125 13.0935H14.3192C14.1193 11.2718 13.2314 9.59525 11.8371 8.40606C10.4428 7.21687 8.64712 6.60479 6.81677 6.69478C4.98641 6.78478 3.2595 7.57006 1.98856 8.89029C0.717621 10.2105 -0.0014166 11.9661 -0.0217285 13.7986V53.1332C-0.0188593 55.0398 0.739765 56.8675 2.08794 58.2157C3.43612 59.5639 5.26379 60.3225 7.1704 60.3254H59.9783V20.4809L52.6125 13.0935ZM53.0247 15.5017L57.5917 20.0687H53.0247V15.5017ZM1.41014 13.7986C1.37635 13.0189 1.50076 12.2405 1.77582 11.5102C2.05088 10.7799 2.47092 10.1129 3.01065 9.54924C3.55038 8.98561 4.19863 8.53706 4.91633 8.23064C5.63402 7.92421 6.40631 7.76623 7.18669 7.76623C7.96706 7.76623 8.73935 7.92421 9.45705 8.23064C10.1747 8.53706 10.823 8.98561 11.3627 9.54924C11.9025 10.1129 12.3226 10.7799 12.5976 11.5102C12.8727 12.2405 12.997 13.0189 12.9632 13.7986V47.872C12.3509 47.2531 11.6207 46.7633 10.8158 46.4316C10.0108 46.0999 9.14748 45.9331 8.27691 45.941H7.19212C6.06514 45.9422 4.9543 46.209 3.94972 46.7198C2.94513 47.2306 2.07508 47.9709 1.41014 48.8808V13.7986ZM12.9632 51.3325C12.9632 53.5021 10.8587 55.2594 8.27691 55.2594H7.89726V47.4055H8.27691C10.8587 47.3513 12.9632 49.1629 12.9632 51.3325ZM7.19212 58.926C5.70806 58.9524 4.27109 58.4048 3.18088 57.3976C2.09067 56.3903 1.43136 55.0011 1.34042 53.5196C1.24949 52.0381 1.734 50.5786 2.69284 49.4456C3.65168 48.3126 5.0109 47.5934 6.48704 47.4381V56.6263H8.27691C11.6398 56.6263 14.3735 54.2397 14.3735 51.2891C14.3789 51.206 14.3789 51.1227 14.3735 51.0396V14.5037H51.6145V21.4789H58.5897V58.926H7.19212Z" fill="#F25757" />
        <path d="M53.0248 53.8384V24.972L24.1584 53.8384H53.0248ZM51.6146 33.8239H50.2477V35.2342H51.6146V38.0546H50.2477V39.4648H51.6146V42.2853H50.2477V43.7389H51.6146V46.5703H50.2477V47.9696H51.6146V52.4173H47.1235V51.0505H45.7133V52.4173H42.882V51.0505H41.4392V52.4173H38.6188V51.0505H37.2085V52.4173H34.3881V51.0505H32.9778V52.4173H27.5539L51.6037 28.3674L51.6146 33.8239Z" fill="#F25757" />
        <path d="M47.1235 38.2065L37.3604 47.9696H47.1235V38.2065ZM45.7133 46.5269H40.7991L45.7133 41.6019V46.5269Z" fill="#F25757" />
        <path d="M25.3192 41.9815L26.7836 46.3207L28.1179 45.8651L24.0825 33.7479C24.4624 33.4863 24.7599 33.122 24.9404 32.6976C25.1209 32.2732 25.1768 31.8062 25.1018 31.3511C25.0267 30.8961 24.8237 30.4718 24.5164 30.1278C24.2091 29.7839 23.8103 29.5345 23.3666 29.4088V27.9985H21.9129V29.4088C21.4699 29.5358 21.0722 29.7863 20.7662 30.1308C20.4601 30.4754 20.2584 30.8999 20.1844 31.3548C20.1105 31.8097 20.1675 32.2762 20.3487 32.6999C20.5299 33.1237 20.8278 33.4871 21.2078 33.7479L17.0964 45.8325L18.4307 46.2882L19.8952 41.949C20.7829 42.1886 21.6986 42.309 22.6181 42.307C23.5289 42.3194 24.4373 42.2099 25.3192 41.9815ZM22.6072 30.7214C22.8218 30.7214 23.0315 30.785 23.2099 30.9042C23.3883 31.0234 23.5273 31.1928 23.6094 31.391C23.6915 31.5892 23.713 31.8074 23.6711 32.0178C23.6293 32.2282 23.526 32.4215 23.3743 32.5732C23.2225 32.7249 23.0292 32.8283 22.8188 32.8701C22.6084 32.912 22.3903 32.8905 22.1921 32.8084C21.9939 32.7263 21.8244 32.5872 21.7052 32.4088C21.586 32.2304 21.5224 32.0207 21.5224 31.8062C21.5224 31.5185 21.6367 31.2425 21.8402 31.0391C22.0436 30.8357 22.3195 30.7214 22.6072 30.7214ZM20.3508 40.6147L22.5204 34.2036H22.6723L24.8419 40.6147C23.3685 40.9908 21.8242 40.9908 20.3508 40.6147Z" fill="#F25757" />
        <path d="M30.6455 35.2233H32.0557V33.0537H35.0389V35.2233H36.4492V33.0537H40.1483L40.8535 32.3486V27.2717H44.1078V25.8615H40.8535V21.5223H47.948V20.1121H40.8209V17.9425H39.4107V20.1121H36.4492V17.9425H35.0389V20.1121H32.0557V17.9425H30.6455V20.1121H27.3911V21.5223H30.6455V25.8615H27.3911V27.2717H30.6455V35.2233ZM32.0557 31.6435V27.3043H35.0389V31.6435H32.0557ZM39.4432 31.6435H36.4492V27.3043H39.4432V31.6435ZM39.4432 21.4789V25.8181H36.4492V21.4789H39.4432ZM32.0557 21.4789H35.0389V25.8181H32.0557V21.4789Z" fill="#F25757" />
        <path d="M23.8437 9.73062H53.6104C54.9051 9.73062 56.1468 9.21633 57.0622 8.30085C57.9777 7.38538 58.492 6.14372 58.492 4.84904C58.492 3.55437 57.9777 2.31273 57.0622 1.39725C56.1468 0.48178 54.9051 -0.0325317 53.6104 -0.0325317H23.8437H23.5617L14.0588 4.13309V5.42398L23.5617 9.57875L23.8437 9.73062ZM52.9053 8.3204H51.3107V1.43195H52.9053V8.3204ZM49.9113 8.3204H24.5488V5.56501H49.9113V8.3204ZM49.9113 4.15478H24.5488V1.43195H49.9113V4.15478ZM23.1386 7.94072L19.613 6.38947V3.3195L23.1386 1.76823V7.94072ZM57.0709 4.84904C57.0701 5.64382 56.7958 6.41412 56.2941 7.03047C55.7923 7.64682 55.0937 8.07167 54.3156 8.23362V1.47533C55.0946 1.63539 55.7944 2.05972 56.2965 2.67649C56.7986 3.29326 57.0722 4.06459 57.0709 4.8599V4.84904ZM18.2028 3.93782V5.77113L16.0983 4.84904L18.2028 3.93782Z" fill="#F25757" />
    </g>
    <defs>
        <clipPath id="clip0_870_18311">
            <rect width="60" height="60.3254" fill="white" />
        </clipPath>
    </defs>
</svg>