<svg width="15" height="15" viewBox="0 0 15 15" fill="none" xmlns="http://www.w3.org/2000/svg">
    <path fill-rule="evenodd" clip-rule="evenodd" d="M10 6.875H8.125V5C8.125 4.65437 7.845 4.375 7.5 4.375C7.155 4.375 6.875 4.65437 6.875 5V7.5C6.875 7.84562 7.155 8.125 7.5 8.125H10C10.3456 8.125 10.625 7.84562 10.625 7.5C10.625 7.15437 10.3456 6.875 10 6.875ZM7.5 12.5C4.74313 12.5 2.5 10.2569 2.5 7.5C2.5 4.74313 4.74313 2.5 7.5 2.5C10.2569 2.5 12.5 4.74313 12.5 7.5C12.5 10.2569 10.2569 12.5 7.5 12.5ZM7.5 1.25C4.05375 1.25 1.25 4.05375 1.25 7.5C1.25 10.9462 4.05375 13.75 7.5 13.75C10.9462 13.75 13.75 10.9462 13.75 7.5C13.75 4.05375 10.9462 1.25 7.5 1.25Z" fill="#9F9FA5" fill-opacity="0.5" />
    <mask id="mask0_1270_19210" style="mask-type:alpha" maskUnits="userSpaceOnUse" x="1" y="1" width="13" height="13">
        <path fill-rule="evenodd" clip-rule="evenodd" d="M10 6.875H8.125V5C8.125 4.65437 7.845 4.375 7.5 4.375C7.155 4.375 6.875 4.65437 6.875 5V7.5C6.875 7.84562 7.155 8.125 7.5 8.125H10C10.3456 8.125 10.625 7.84562 10.625 7.5C10.625 7.15437 10.3456 6.875 10 6.875ZM7.5 12.5C4.74313 12.5 2.5 10.2569 2.5 7.5C2.5 4.74313 4.74313 2.5 7.5 2.5C10.2569 2.5 12.5 4.74313 12.5 7.5C12.5 10.2569 10.2569 12.5 7.5 12.5ZM7.5 1.25C4.05375 1.25 1.25 4.05375 1.25 7.5C1.25 10.9462 4.05375 13.75 7.5 13.75C10.9462 13.75 13.75 10.9462 13.75 7.5C13.75 4.05375 10.9462 1.25 7.5 1.25Z" fill="white" />
    </mask>
    <g mask="url(#mask0_1270_19210)">
        <rect width="15" height="15" fill="#9F9FA5" fill-opacity="0.5" />
    </g>
</svg>