<svg width="30" height="30" viewBox="0 0 30 30" fill="none" xmlns="http://www.w3.org/2000/svg">
    <path fill-rule="evenodd" clip-rule="evenodd" d="M14.7767 19.3824C14.988 19.3824 15.2005 19.4361 15.3917 19.5436L21.2505 22.8574V6.66738C21.2505 6.41613 21.0992 6.24988 21.0005 6.24988H9.00049C8.90049 6.24988 8.75049 6.41613 8.75049 6.66738V22.7924L14.133 19.5611C14.3317 19.4424 14.5542 19.3824 14.7767 19.3824ZM7.50049 26.2499C7.28799 26.2499 7.07549 26.1961 6.88424 26.0874C6.49299 25.8661 6.25049 25.4499 6.25049 24.9999V6.66738C6.25049 5.05863 7.48424 3.74988 9.00049 3.74988H21.0005C22.5167 3.74988 23.7505 5.05863 23.7505 6.66738V24.9999C23.7505 25.4449 23.5142 25.8561 23.1305 26.0799C22.7455 26.3049 22.273 26.3086 21.8855 26.0886L14.7955 22.0786L8.14299 26.0724C7.94549 26.1899 7.72299 26.2499 7.50049 26.2499Z" fill="#F25757" />
    <mask id="mask0_0_1342" style="mask-type:alpha" maskUnits="userSpaceOnUse" x="6" y="3" width="18" height="24">
        <path fill-rule="evenodd" clip-rule="evenodd" d="M14.7767 19.3824C14.988 19.3824 15.2005 19.4361 15.3917 19.5436L21.2505 22.8574V6.66738C21.2505 6.41613 21.0992 6.24988 21.0005 6.24988H9.00049C8.90049 6.24988 8.75049 6.41613 8.75049 6.66738V22.7924L14.133 19.5611C14.3317 19.4424 14.5542 19.3824 14.7767 19.3824ZM7.50049 26.2499C7.28799 26.2499 7.07549 26.1961 6.88424 26.0874C6.49299 25.8661 6.25049 25.4499 6.25049 24.9999V6.66738C6.25049 5.05863 7.48424 3.74988 9.00049 3.74988H21.0005C22.5167 3.74988 23.7505 5.05863 23.7505 6.66738V24.9999C23.7505 25.4449 23.5142 25.8561 23.1305 26.0799C22.7455 26.3049 22.273 26.3086 21.8855 26.0886L14.7955 22.0786L8.14299 26.0724C7.94549 26.1899 7.72299 26.2499 7.50049 26.2499Z" fill="white" />
    </mask>
    <g mask="url(#mask0_0_1342)">
        <rect width="30" height="30" fill="#F25757" />
    </g>
</svg>
    