<svg width="30" height="30" viewBox="0 0 30 30" fill="none" xmlns="http://www.w3.org/2000/svg">
    <path fill-rule="evenodd" clip-rule="evenodd" d="M18.75 15H16.25V12.5C16.25 11.8088 15.69 11.25 15 11.25C14.31 11.25 13.75 11.8088 13.75 12.5V16.25C13.75 16.9412 14.31 17.5 15 17.5H18.75C19.44 17.5 20 16.9412 20 16.25C20 15.5588 19.44 15 18.75 15ZM15 24.6875C10.3475 24.6875 6.5625 20.9025 6.5625 16.25C6.5625 11.5975 10.3475 7.8125 15 7.8125C19.6525 7.8125 23.4375 11.5975 23.4375 16.25C23.4375 20.9025 19.6525 24.6875 15 24.6875ZM16.235 5.0725C16.2375 5.04625 16.25 5.02625 16.25 5V3.75H17.5C18.19 3.75 18.75 3.19125 18.75 2.5C18.75 1.80875 18.19 1.25 17.5 1.25H12.5C11.81 1.25 11.25 1.80875 11.25 2.5C11.25 3.19125 11.81 3.75 12.5 3.75H13.75V5C13.75 5.02625 13.7625 5.04625 13.765 5.0725C8.14125 5.69 3.75 10.465 3.75 16.25C3.75 22.4538 8.7975 27.5 15 27.5C21.2025 27.5 26.25 22.4538 26.25 16.25C26.25 10.465 21.8587 5.69 16.235 5.0725Z" fill="#F25757" />
    <mask id="mask0_0_1321" style="mask-type:alpha" maskUnits="userSpaceOnUse" x="3" y="1" width="24" height="27">
        <path fill-rule="evenodd" clip-rule="evenodd" d="M18.75 15H16.25V12.5C16.25 11.8088 15.69 11.25 15 11.25C14.31 11.25 13.75 11.8088 13.75 12.5V16.25C13.75 16.9412 14.31 17.5 15 17.5H18.75C19.44 17.5 20 16.9412 20 16.25C20 15.5588 19.44 15 18.75 15ZM15 24.6875C10.3475 24.6875 6.5625 20.9025 6.5625 16.25C6.5625 11.5975 10.3475 7.8125 15 7.8125C19.6525 7.8125 23.4375 11.5975 23.4375 16.25C23.4375 20.9025 19.6525 24.6875 15 24.6875ZM16.235 5.0725C16.2375 5.04625 16.25 5.02625 16.25 5V3.75H17.5C18.19 3.75 18.75 3.19125 18.75 2.5C18.75 1.80875 18.19 1.25 17.5 1.25H12.5C11.81 1.25 11.25 1.80875 11.25 2.5C11.25 3.19125 11.81 3.75 12.5 3.75H13.75V5C13.75 5.02625 13.7625 5.04625 13.765 5.0725C8.14125 5.69 3.75 10.465 3.75 16.25C3.75 22.4538 8.7975 27.5 15 27.5C21.2025 27.5 26.25 22.4538 26.25 16.25C26.25 10.465 21.8587 5.69 16.235 5.0725Z" fill="white" />
    </mask>
    <g mask="url(#mask0_0_1321)">
        <rect width="30" height="30" fill="#F25757" />
    </g>
</svg>
    