<svg width="60" height="60" viewBox="0 0 60 60" fill="none" xmlns="http://www.w3.org/2000/svg">
    <g clip-path="url(#clip0_870_18338)">
        <path d="M54.651 17.0886V12.6401H44.6799L41.9024 17.0561H37.7794V3.8083H33.6456V0H4.13381V3.8083H0V60H59.859V17.0886H54.651ZM5.5443 1.41048H32.2351V3.8083H5.5443V1.41048ZM22.1121 44.6474H15.7107V43.5624H22.1555L22.1121 44.6474ZM23.9132 46.0578V58.5895H13.8662V46.0578H23.9132ZM23.5226 44.6474V42.1194H14.2568V44.6474H12.4557V58.5895H9.32007V39.4937H28.4593V58.5895H25.3237V44.6474H23.5226ZM13.0524 13.2477V17.0886H9.32007V13.2477H13.0524ZM33.5913 38.0832H29.8698V34.2423H33.5913V38.0832ZM23.3056 29.0018V32.8318H19.5841V29.0018H23.3056ZM19.5841 27.5913V23.7504H23.3056V27.5913H19.5841ZM24.7161 29.0018H28.4484V32.8318H24.7161V29.0018ZM24.7161 27.5913V23.7504H28.4484V27.5913H24.7161ZM24.7161 22.34V18.4991H28.4484V22.34H24.7161ZM23.3056 22.34H19.5841V18.4991H23.3056V22.34ZM18.1736 22.34H14.4521V18.4991H18.1736V22.34ZM18.1736 23.7504V27.5913H14.4521V23.7504H18.1736ZM18.1736 29.0018V32.8318H14.4521V29.0018H18.1736ZM18.1736 34.2423V38.0832H14.4521V34.2423H18.1736ZM19.5841 34.2423H23.3056V38.0832H19.5841V34.2423ZM24.7161 34.2423H28.4484V38.0832H24.7161V34.2423ZM33.5805 32.8318H29.859V29.0018H33.5805V32.8318ZM33.5805 27.5913H29.859V23.7504H33.5805V27.5913ZM33.5805 22.34H29.859V18.4991H33.5805V22.34ZM33.5805 17.0886H29.859V13.2477H33.5805V17.0886ZM28.4484 17.0886H24.7161V13.2477H28.4484V17.0886ZM23.3056 17.0886H19.5841V13.2477H23.3056V17.0886ZM18.1736 17.0886H14.4521V13.2477H18.1736V17.0886ZM13.0416 18.4991V22.34H9.30922V18.4991H13.0416ZM13.0416 23.7504V27.5913H9.30922V23.7504H13.0416ZM13.0416 29.0018V32.8318H9.30922V29.0018H13.0416ZM13.0416 34.2423V38.0832H9.30922V34.2423H13.0416ZM29.859 39.4937H33.5805V58.5895H29.859V39.4937ZM33.5805 11.8373H4.17721V7.99638H33.5805V11.8373ZM4.17721 13.2477H7.90958V17.0886H4.17721V13.2477ZM4.17721 18.4991H7.90958V22.34H4.17721V18.4991ZM4.17721 23.7504H7.90958V27.5913H4.17721V23.7504ZM4.17721 29.0018H7.90958V32.8318H4.17721V29.0018ZM4.17721 34.2423H7.90958V38.0832H4.17721V34.2423ZM4.17721 39.4937H7.90958V58.5895H4.17721V39.4937ZM36.3255 58.5895H34.9584V6.5859H2.73417V58.5895H1.36708V5.2188H36.3255V58.5895ZM45.4177 14.1049H53.1971V17.1103H43.519L45.4177 14.1049ZM58.4376 18.5208V22.3616H37.7794V18.4991L58.4376 18.5208ZM47.4032 34.264V38.1049H43.2911V34.264H47.4032ZM43.2911 32.8535V29.0235H47.4032V32.8535H43.2911ZM47.4032 39.5154V43.3562H43.2911V39.5154H47.4032ZM48.8138 39.5154H52.915V43.3562H48.8138V39.5154ZM48.8138 38.1049V34.264H52.915V38.1049H48.8138ZM48.8138 32.8535V29.0235H52.915V32.8535H48.8138ZM48.8138 27.613V23.7722H52.915V27.613H48.8138ZM47.4032 27.613H43.2911V23.7722H47.4032V27.613ZM41.8806 27.613H37.7685V23.7722H41.8806V27.613ZM41.8806 29.0235V32.8535H37.7685V29.0235H41.8806ZM41.8806 34.264V38.1049H37.7685V34.264H41.8806ZM41.8806 39.5154V43.3562H37.7685V39.5154H41.8806ZM41.8806 44.7667V48.6076H37.7685V44.7667H41.8806ZM43.2911 44.7667H47.4032V48.6076H43.2911V44.7667ZM47.4032 50.0181V58.6112H43.2911V50.0181H47.4032ZM48.8138 50.0181H52.915V58.6112H48.8138V50.0181ZM48.8138 48.6076V44.7667H52.915V48.6076H48.8138ZM54.3255 44.7667H58.4376V48.6076H54.3363L54.3255 44.7667ZM54.3255 43.3562V39.5154H58.4376V43.3562H54.3255ZM54.3255 38.1049V34.264H58.4376V38.1049H54.3255ZM54.3255 32.8535V29.0235H58.4376V32.8535H54.3255ZM54.3255 27.613V23.7722H58.4376V27.613H54.3255ZM37.7685 50.0181H41.8806V58.6112H37.7685V50.0181ZM54.3255 58.6112V50.0181H58.4376V58.6112H54.3255Z" fill="#F25757" />
    </g>
    <defs>
        <clipPath id="clip0_870_18338">
            <rect width="59.859" height="60" fill="white" />
        </clipPath>
    </defs>
</svg>
    