<svg width="60" height="60" viewBox="0 0 60 60" fill="none" xmlns="http://www.w3.org/2000/svg">
    <g clip-path="url(#clip0_870_18318)">
        <path d="M34.0687 47.5986H6.19526C4.5956 47.6655 3.08369 48.3481 1.97549 49.5036C0.867286 50.6591 0.248535 52.1982 0.248535 53.7993C0.248535 55.4003 0.867286 56.9394 1.97549 58.095C3.08369 59.2505 4.5956 59.9331 6.19526 60H34.0687C35.6683 59.9331 37.1803 59.2505 38.2885 58.095C39.3967 56.9394 40.0154 55.4003 40.0154 53.7993C40.0154 52.1982 39.3967 50.6591 38.2885 49.5036C37.1803 48.3481 35.6683 47.6655 34.0687 47.5986ZM34.0687 58.5895H6.19526C4.96424 58.5309 3.80308 58.0007 2.9526 57.1087C2.10213 56.2168 1.62762 55.0317 1.62762 53.7993C1.62762 52.5669 2.10213 51.3818 2.9526 50.4899C3.80308 49.5979 4.96424 49.0677 6.19526 49.009H34.0687C35.2997 49.0677 36.4609 49.5979 37.3114 50.4899C38.1619 51.3818 38.6363 52.5669 38.6363 53.7993C38.6363 55.0317 38.1619 56.2168 37.3114 57.1087C36.4609 58.0007 35.2997 58.5309 34.0687 58.5895Z" fill="#F25757" />
        <path d="M6.79199 50.4086C6.11986 50.4087 5.46289 50.6081 4.90419 50.9817C4.34548 51.3554 3.91016 51.8864 3.65344 52.5076C3.39673 53.1287 3.33014 53.8121 3.46206 54.4712C3.59398 55.1303 3.91851 55.7353 4.39454 56.2098C4.87057 56.6844 5.47665 57.007 6.13613 57.1368C6.7956 57.2666 7.47881 57.1978 8.09916 56.9391C8.71951 56.6804 9.2491 56.2434 9.62096 55.6835C9.99281 55.1236 10.1902 54.4659 10.188 53.7938C10.188 53.3484 10.1001 52.9073 9.92929 52.4959C9.75849 52.0844 9.50819 51.7108 9.1927 51.3963C8.8772 51.0818 8.50278 50.8327 8.09082 50.6632C7.67886 50.4937 7.23745 50.4072 6.79199 50.4086ZM6.79199 55.7794C6.39929 55.7794 6.01544 55.6629 5.68892 55.4447C5.3624 55.2266 5.10791 54.9165 4.95763 54.5537C4.80735 54.1908 4.76804 53.7916 4.84465 53.4065C4.92126 53.0213 5.11033 52.6675 5.38801 52.3898C5.66569 52.1121 6.0195 51.9231 6.40466 51.8464C6.78981 51.7698 7.18902 51.8091 7.55183 51.9594C7.91464 52.1097 8.22475 52.3642 8.44292 52.6907C8.6611 53.0172 8.77755 53.4011 8.77755 53.7938C8.77755 54.3204 8.56834 54.8254 8.19598 55.1978C7.82362 55.5702 7.31859 55.7794 6.79199 55.7794Z" fill="#F25757" />
        <path d="M15.6891 50.4086C15.0165 50.4065 14.3584 50.6041 13.7983 50.9765C13.2381 51.3488 12.8012 51.8791 12.5428 52.5001C12.2845 53.121 12.2163 53.8047 12.3469 54.4645C12.4776 55.1243 12.8013 55.7304 13.2769 56.206C13.7525 56.6816 14.3586 57.0052 15.0184 57.1359C15.6781 57.2666 16.3619 57.1985 16.9829 56.9401C17.6038 56.6817 18.1341 56.2448 18.5064 55.6846C18.8788 55.1245 19.0764 54.4664 19.0742 53.7938C19.0742 52.896 18.7176 52.035 18.0828 51.4001C17.4479 50.7653 16.5869 50.4086 15.6891 50.4086ZM15.6891 55.7794C15.2959 55.7815 14.911 55.6669 14.583 55.45C14.2551 55.2331 13.9989 54.9238 13.847 54.5612C13.695 54.1986 13.6542 53.799 13.7295 53.4132C13.8049 53.0273 13.9931 52.6725 14.2704 52.3937C14.5476 52.1149 14.9014 51.9248 15.2868 51.8473C15.6723 51.7698 16.0721 51.8085 16.4355 51.9584C16.799 52.1084 17.1097 52.3628 17.3283 52.6896C17.547 53.0163 17.6638 53.4007 17.6638 53.7938C17.6652 54.054 17.6151 54.312 17.5165 54.5528C17.418 54.7937 17.2727 55.0126 17.0892 55.1971C16.9057 55.3817 16.6875 55.5281 16.4473 55.628C16.207 55.7279 15.9493 55.7794 15.6891 55.7794Z" fill="#F25757" />
        <path d="M24.5751 50.4086C23.9025 50.4065 23.2444 50.6041 22.6843 50.9765C22.1242 51.3488 21.6872 51.8791 21.4288 52.5001C21.1704 53.121 21.1023 53.8047 21.233 54.4645C21.3636 55.1243 21.6873 55.7304 22.1629 56.206C22.6385 56.6816 23.2446 57.0052 23.9044 57.1359C24.5641 57.2666 25.2479 57.1985 25.8689 56.9401C26.4898 56.6817 27.0201 56.2448 27.3924 55.6846C27.7648 55.1245 27.9624 54.4664 27.9602 53.7938C27.9602 52.896 27.6036 52.035 26.9688 51.4001C26.3339 50.7653 25.4729 50.4086 24.5751 50.4086ZM24.5751 55.7794C24.1819 55.7815 23.797 55.6669 23.469 55.45C23.1411 55.2331 22.8849 54.9238 22.733 54.5612C22.581 54.1986 22.5402 53.799 22.6155 53.4132C22.6909 53.0273 22.8791 52.6725 23.1564 52.3937C23.4336 52.1149 23.7874 51.9248 24.1728 51.8473C24.5583 51.7698 24.9581 51.8085 25.3215 51.9584C25.685 52.1084 25.9957 52.3628 26.2143 52.6896C26.433 53.0163 26.5498 53.4007 26.5498 53.7938C26.5498 54.3185 26.3421 54.8219 25.972 55.194C25.602 55.566 25.0998 55.7765 24.5751 55.7794Z" fill="#F25757" />
        <path d="M33.4612 50.4086C32.7891 50.4087 32.132 50.6081 31.5733 50.9817C31.0146 51.3554 30.5793 51.8864 30.3226 52.5076C30.0659 53.1287 29.9993 53.8121 30.1312 54.4712C30.2632 55.1303 30.5876 55.7353 31.0637 56.2098C31.5397 56.6844 32.1458 57.007 32.8053 57.1368C33.4648 57.2666 34.1479 57.1978 34.7683 56.9391C35.3886 56.6804 35.9183 56.2434 36.2901 55.6835C36.662 55.1236 36.8594 54.4659 36.8572 53.7938C36.8572 53.3484 36.7693 52.9073 36.5985 52.4959C36.4277 52.0844 36.1774 51.7108 35.8619 51.3963C35.5464 51.0818 35.1719 50.8327 34.7599 50.6632C34.348 50.4937 33.9066 50.4072 33.4612 50.4086ZM33.4612 55.7794C33.0685 55.7794 32.6846 55.6629 32.358 55.4447C32.0315 55.2266 31.7771 54.9165 31.6268 54.5537C31.4765 54.1908 31.4372 53.7916 31.5138 53.4065C31.5904 53.0213 31.7795 52.6675 32.0572 52.3898C32.3349 52.1121 32.6887 51.9231 33.0738 51.8464C33.459 51.7698 33.8582 51.8091 34.221 51.9594C34.5838 52.1097 34.8939 52.3642 35.1121 52.6907C35.3303 53.0172 35.4467 53.4011 35.4467 53.7938C35.4467 54.3204 35.2375 54.8254 34.8652 55.1978C34.4928 55.5702 33.9878 55.7794 33.4612 55.7794Z" fill="#F25757" />
        <path d="M36.3146 31.736L30.7703 27.103H23.2947V37.4756H36.3146V31.736ZM34.9041 36.0759H24.7052V28.481H30.2712L34.915 32.3652L34.9041 36.0759Z" fill="#F25757" />
        <path d="M12.6944 30.3798H5.35986V31.7902H12.6944V30.3798Z" fill="#F25757" />
        <path d="M12.6944 34.8282H5.35986V36.2387H12.6944V34.8282Z" fill="#F25757" />
        <path d="M12.6944 39.2875H5.35986V40.698H12.6944V39.2875Z" fill="#F25757" />
        <path d="M37.7252 6.1953C37.9943 5.92624 38.1454 5.56133 38.1454 5.18083C38.1454 4.80034 37.9943 4.43542 37.7252 4.16637C37.4562 3.89732 37.0913 3.74615 36.7108 3.74615C36.3303 3.74615 35.9654 3.89732 35.6963 4.16637C35.5631 4.29959 35.4574 4.45775 35.3853 4.63182C35.3132 4.80588 35.2761 4.99243 35.2761 5.18083C35.2761 5.36924 35.3132 5.55579 35.3853 5.72985C35.4574 5.90391 35.5631 6.06208 35.6963 6.1953C35.8295 6.32852 35.9877 6.43421 36.1617 6.50631C36.3358 6.57841 36.5224 6.61551 36.7108 6.61551C36.8992 6.61551 37.0858 6.57841 37.2598 6.50631C37.4339 6.43421 37.592 6.32852 37.7252 6.1953Z" fill="#F25757" />
        <path d="M58.6655 33.2659C59.0219 32.7452 59.2112 32.1283 59.208 31.4973C59.208 30.6561 58.8746 29.8491 58.2807 29.2532C57.6869 28.6574 56.8811 28.3212 56.0398 28.3183H55.9314L41.8916 5.21883V5.16456C41.8873 4.14195 41.5808 3.14345 41.0107 2.29453C40.4405 1.44562 39.6321 0.784208 38.6871 0.393449C37.7421 0.00268997 36.7026 -0.0999765 35.6994 0.0983611C34.6962 0.296699 33.7741 0.787168 33.0489 1.50814C32.5812 1.98444 32.2124 2.54863 31.9639 3.16818L11.349 23.783H4.01449L0.976533 26.8535V43.009L2.52806 44.6583H0.759521V46.0687H39.613V44.6474H37.8445L39.396 43.009V30.3147L31.5842 23.8047H24.2821L37.4322 10.6546L53.0561 30.3689C52.9168 30.7139 52.8431 31.0819 52.8391 31.4539C52.8453 31.9397 52.9603 32.418 53.1754 32.8535H47.6311L45.9603 31.1718H42.7053L42.5317 31.6275C42.1889 32.5509 42.0162 33.5287 42.0218 34.5136C41.9813 35.6368 42.1675 36.7565 42.5694 37.8061C42.9713 38.8557 43.5806 39.8136 44.3609 40.6225C45.1412 41.4314 46.0765 42.0747 47.1109 42.5142C48.1453 42.9536 49.2577 43.1801 50.3816 43.1801C51.5055 43.1801 52.6179 42.9536 53.6523 42.5142C54.6867 42.0747 55.622 41.4314 56.4023 40.6225C57.1826 39.8136 57.7919 38.8557 58.1938 37.8061C58.5957 36.7565 58.7819 35.6368 58.7414 34.5136C58.7424 34.1689 58.7207 33.8246 58.6763 33.4828C58.698 33.4394 58.6763 33.3526 58.6655 33.2659ZM57.7975 31.4973C57.7954 31.8445 57.6905 32.1832 57.4961 32.4708C57.3016 32.7585 57.0263 32.9821 56.705 33.1134C56.3836 33.2448 56.0305 33.2781 55.6903 33.209C55.3501 33.14 55.0379 32.9718 54.7932 32.7255C54.5485 32.4793 54.3821 32.166 54.3152 31.8254C54.2482 31.4847 54.2836 31.1319 54.417 30.8113C54.5503 30.4908 54.7756 30.2169 55.0644 30.0243C55.3532 29.8316 55.6926 29.7288 56.0398 29.7288C56.2716 29.7288 56.501 29.7746 56.715 29.8636C56.9289 29.9526 57.1232 30.0831 57.2865 30.2474C57.4499 30.4118 57.5792 30.6068 57.6668 30.8213C57.7545 31.0359 57.7989 31.2656 57.7975 31.4973ZM54.5425 28.7306C54.3269 28.8464 54.1265 28.9886 53.9458 29.1537L38.6691 9.98192C39.3146 9.72153 39.9013 9.33413 40.3943 8.84269C40.8513 8.37842 41.219 7.83411 41.4793 7.23689L54.5425 28.7306ZM34.0688 2.51721C34.7794 1.81596 35.7395 1.42568 36.7379 1.43222C37.4836 1.43164 38.2126 1.65249 38.8326 2.06683C39.4526 2.48116 39.9356 3.07031 40.2204 3.75951C40.5051 4.44871 40.5788 5.20694 40.432 5.93807C40.2853 6.66919 39.9247 7.34028 39.396 7.86621C38.6802 8.54622 37.7306 8.92537 36.7433 8.92537C35.756 8.92537 34.8063 8.54622 34.0905 7.86621C33.7356 7.51829 33.4529 7.10373 33.2586 6.64632C33.0643 6.18891 32.9622 5.69766 32.9581 5.20071C32.9541 4.70376 33.0482 4.2109 33.2351 3.75041C33.4219 3.28991 33.6979 2.87084 34.047 2.51721H34.0688ZM2.33277 42.4774V27.4395L4.56785 25.2043H11.3057L16.34 30.2821V44.6474H4.40508L2.33277 42.4774ZM17.7505 44.6474V26.6365C17.7491 26.449 17.7848 26.263 17.8555 26.0893C17.9263 25.9156 18.0308 25.7576 18.163 25.6245C18.2951 25.4914 18.4522 25.3857 18.6254 25.3136C18.7985 25.2415 18.9843 25.2043 19.1719 25.2043H20.2568V44.6474H17.7505ZM37.9313 30.9657V42.4774L35.8482 44.6474H21.7433V25.2043H31.0742L37.9313 30.9657ZM19.1719 23.783C18.4198 23.7859 17.6995 24.0866 17.1688 24.6194C16.638 25.1522 16.34 25.8737 16.34 26.6257V28.264L12.5968 24.4883L31.5733 5.58772C31.6401 6.58404 31.9986 7.53869 32.604 8.33274L21.83 19.1067C21.7008 19.2385 21.6284 19.4158 21.6284 19.6004C21.6284 19.785 21.7008 19.9622 21.83 20.094C21.8948 20.161 21.9724 20.2142 22.0581 20.2506C22.1438 20.2869 22.236 20.3057 22.3291 20.3057C22.4223 20.3057 22.5145 20.2869 22.6002 20.2506C22.6859 20.2142 22.7635 20.161 22.8283 20.094L33.6022 9.32009C34.2349 9.81803 34.9799 10.1533 35.7722 10.2966L22.2423 23.7939L19.1719 23.783ZM50.4087 41.5009C48.5661 41.4981 46.7999 40.764 45.498 39.4601C44.1961 38.1561 43.4647 36.3888 43.4648 34.5461C43.459 33.8925 43.5504 33.2416 43.736 32.6148H45.4612L47.132 34.2966H54.651C55.0937 34.5266 55.5843 34.6493 56.0832 34.6546C56.5368 34.6528 56.9847 34.5528 57.3961 34.3617C57.3961 34.4268 57.3961 34.481 57.3961 34.5461C57.3961 35.4627 57.2152 36.3703 56.8638 37.2168C56.5124 38.0633 55.9973 38.8322 55.3482 39.4793C54.6991 40.1264 53.9286 40.639 53.081 40.9878C52.2334 41.3365 51.3253 41.5146 50.4087 41.5118V41.5009Z" fill="#F25757" />
    </g>
    <defs>
        <clipPath id="clip0_870_18318">
            <rect width="59.2188" height="60" fill="white" />
        </clipPath>
    </defs>
</svg>
    