<svg width="20" height="20" viewBox="0 0 20 20" fill="none" xmlns="http://www.w3.org/2000/svg">
    <path fill-rule="evenodd" clip-rule="evenodd" d="M9.99085 6.07677L5.52251 9.67261C5.16418 9.96094 4.64001 9.90427 4.35085 9.54594C4.06251 9.18677 4.11918 8.66261 4.47751 8.37344L9.47751 4.35011C9.78668 4.10177 10.2283 4.10427 10.5333 4.36011L15.5333 8.52677C15.8875 8.82094 15.935 9.34594 15.64 9.70011C15.475 9.89761 15.2383 10.0001 15 10.0001C14.8117 10.0001 14.6225 9.93594 14.4667 9.80677L9.99085 6.07677ZM9.47754 10.1839C9.78671 9.93469 10.2284 9.93802 10.5334 10.193L15.5334 14.3597C15.8867 14.6547 15.9342 15.1797 15.64 15.533C15.475 15.7314 15.2384 15.833 14.9992 15.833C14.8117 15.833 14.6225 15.7697 14.4667 15.6397L9.99088 11.9105L5.52254 15.5055C5.16421 15.7947 4.64004 15.738 4.35088 15.3789C4.06171 15.0205 4.11921 14.4964 4.47754 14.2072L9.47754 10.1839Z" fill="#E6B721" />
    <mask id="mask0_894_20755" style="mask-type:alpha" maskUnits="userSpaceOnUse" x="4" y="4" width="12" height="12">
        <path fill-rule="evenodd" clip-rule="evenodd" d="M9.99085 6.07677L5.52251 9.67261C5.16418 9.96094 4.64001 9.90427 4.35085 9.54594C4.06251 9.18677 4.11918 8.66261 4.47751 8.37344L9.47751 4.35011C9.78668 4.10177 10.2283 4.10427 10.5333 4.36011L15.5333 8.52677C15.8875 8.82094 15.935 9.34594 15.64 9.70011C15.475 9.89761 15.2383 10.0001 15 10.0001C14.8117 10.0001 14.6225 9.93594 14.4667 9.80677L9.99085 6.07677ZM9.47754 10.1839C9.78671 9.93469 10.2284 9.93802 10.5334 10.193L15.5334 14.3597C15.8867 14.6547 15.9342 15.1797 15.64 15.533C15.475 15.7314 15.2384 15.833 14.9992 15.833C14.8117 15.833 14.6225 15.7697 14.4667 15.6397L9.99088 11.9105L5.52254 15.5055C5.16421 15.7947 4.64004 15.738 4.35088 15.3789C4.06171 15.0205 4.11921 14.4964 4.47754 14.2072L9.47754 10.1839Z" fill="white" />
    </mask>
    <g mask="url(#mask0_894_20755)">
        <rect width="20" height="20" fill="#E6B721" />
    </g>
</svg>
    