<svg width="30" height="30" viewBox="0 0 30 30" fill="none" xmlns="http://www.w3.org/2000/svg">
    <path fill-rule="evenodd" clip-rule="evenodd" d="M23.75 5C23.0625 5 22.5 5.5625 22.5 6.25V25C22.5 25.6875 23.0625 26.25 23.75 26.25C24.4375 26.25 25 25.6875 25 25V6.25C25 5.5625 24.4375 5 23.75 5ZM15 10C14.3125 10 13.75 10.5625 13.75 11.25V25C13.75 25.6875 14.3125 26.25 15 26.25C15.6875 26.25 16.25 25.6875 16.25 25V11.25C16.25 10.5625 15.6875 10 15 10ZM5 16.25C5 15.5625 5.5625 15 6.25 15C6.9375 15 7.5 15.5625 7.5 16.25V25C7.5 25.6875 6.9375 26.25 6.25 26.25C5.5625 26.25 5 25.6875 5 25V16.25Z" fill="#F25757" />
    <mask id="mask0_0_1328" style="mask-type:alpha" maskUnits="userSpaceOnUse" x="5" y="5" width="20" height="22">
        <path fill-rule="evenodd" clip-rule="evenodd" d="M23.75 5C23.0625 5 22.5 5.5625 22.5 6.25V25C22.5 25.6875 23.0625 26.25 23.75 26.25C24.4375 26.25 25 25.6875 25 25V6.25C25 5.5625 24.4375 5 23.75 5ZM15 10C14.3125 10 13.75 10.5625 13.75 11.25V25C13.75 25.6875 14.3125 26.25 15 26.25C15.6875 26.25 16.25 25.6875 16.25 25V11.25C16.25 10.5625 15.6875 10 15 10ZM5 16.25C5 15.5625 5.5625 15 6.25 15C6.9375 15 7.5 15.5625 7.5 16.25V25C7.5 25.6875 6.9375 26.25 6.25 26.25C5.5625 26.25 5 25.6875 5 25V16.25Z" fill="white" />
    </mask>
    <g mask="url(#mask0_0_1328)">
        <rect width="30" height="30" fill="#F25757" />
    </g>
</svg>
    