<svg width="628" height="607" viewBox="0 0 628 607" fill="none" xmlns="http://www.w3.org/2000/svg">
    <path d="M333.881 551.92C286.981 545.61 230.311 551.09 207.311 564.16C184.311 577.23 203.691 592.93 250.591 599.24C297.491 605.55 354.161 600.07 377.161 587C400.161 573.93 380.781 558.23 333.881 551.92Z" fill="#3A3A3A"/>
    <path d="M207.303 572.21C230.303 559.14 286.963 553.66 333.873 559.97C362.723 563.85 381.143 571.29 385.703 579.48C391.953 568.39 372.013 557.05 333.873 551.92C286.973 545.61 230.303 551.09 207.303 564.16C198.453 569.19 195.903 574.61 198.753 579.73C200.193 577.18 203.013 574.65 207.303 572.21Z" fill="#B3B3B3"/>
    <path d="M145.632 581.95C161.222 590.46 148.082 600.7 116.292 604.8C84.5017 608.91 46.0817 605.34 30.4917 596.83C14.9017 588.32 28.0417 578.08 59.8317 573.98C91.6217 569.87 130.042 573.44 145.632 581.95Z" fill="#D7D7DD"/>
    <path d="M152.242 585.55C151.882 583.98 151.522 582.41 151.162 580.84C151.252 581.22 151.282 581.59 151.272 581.97C151.282 581.59 151.252 581.22 151.162 580.84C150.822 579.37 150.072 578.02 148.882 576.7C148.652 576.45 148.332 576.11 148.072 575.89C147.572 575.45 146.892 574.9 146.362 574.5C145.722 574.01 144.802 573.48 144.112 573.07C143.222 572.59 142.012 571.98 141.092 571.55C140.302 571.19 139.232 570.75 138.422 570.45C136.852 569.88 134.722 569.2 133.122 568.72C132.092 568.41 130.692 568.07 129.652 567.81C127.282 567.22 123.492 566.5 122.612 566.36C121.472 566.18 119.952 565.9 118.812 565.75C116.432 565.43 113.252 565.03 110.872 564.79C108.412 564.55 99.5916 563.76 89.3516 563.93C86.1616 563.98 86.1616 563.98 80.5316 564.25C79.2216 564.31 77.4716 564.46 76.1716 564.56C74.7816 564.66 72.1516 564.9 67.5716 565.49C67.2016 565.54 63.8616 565.97 59.8216 566.75C57.7816 567.14 55.0916 567.78 53.0816 568.28C50.6716 568.88 46.6816 570.17 44.1816 571.3C42.6916 571.97 41.5116 572.52 39.9816 573.48C38.4716 574.42 37.7516 575.05 36.8216 575.89C36.7316 575.97 36.2516 576.42 35.6016 577.24C35.2816 577.64 35.1116 577.91 34.7916 578.45C34.7916 578.45 34.5116 578.91 34.2516 579.58C34.1116 579.93 34.0916 579.99 33.9116 580.67C33.8716 580.86 33.8616 581.05 33.8416 581.23C33.8616 581.04 33.8616 580.85 33.9116 580.67C33.5416 582.24 33.1816 583.81 32.8116 585.37C32.1616 588.17 34.0516 591.05 38.8116 593.76C53.3616 602.03 89.2016 605.49 118.872 601.5C141.262 598.47 153.732 592.07 152.242 585.55Z" fill="#E8B909"/>
    <path d="M142.622 572.79C156.192 580.5 144.762 589.76 117.092 593.48C89.422 597.2 56.002 593.97 42.432 586.26C28.862 578.55 40.292 569.29 67.962 565.57C95.632 561.85 129.052 565.08 142.622 572.79ZM128.832 574.64C119.002 569.05 94.782 566.71 74.732 569.41C54.682 572.11 46.402 578.82 56.232 584.4C66.062 589.99 90.282 592.33 110.332 589.63C130.372 586.94 138.662 580.23 128.832 574.64Z" fill="#BC9106"/>
    <path d="M103.31 474.56C102.73 472.53 101.21 471.61 100.56 471.22C99.9804 470.91 98.6404 470.18 95.7304 469.83C94.5504 469.69 92.1504 469.5 89.3704 469.86C86.3104 470.26 84.9304 471.15 84.4104 471.49C83.8704 471.84 83.3704 472.32 82.9204 472.92C82.4604 473.53 82.2504 474.18 82.1404 474.52C81.9904 475.03 82.3204 475.56 83.1904 476.05C85.7704 477.52 92.1304 478.13 97.4004 477.42C101.42 476.88 103.64 475.73 103.31 474.56Z" fill="#E8B909"/>
    <path d="M52.2105 578.57C53.1105 575.45 54.3005 571.29 55.2005 568.16C55.6505 566.6 56.2505 564.52 56.7005 562.96C57.6005 559.84 58.7905 555.68 59.6905 552.55C60.5905 549.43 61.7805 545.27 62.6805 542.14C63.1305 540.58 63.7305 538.5 64.1805 536.94C65.0805 533.82 66.2705 529.66 67.1705 526.53C68.0705 523.41 69.2605 519.25 70.1605 516.12C70.6105 514.56 71.2105 512.48 71.6605 510.92C72.5605 507.8 73.7505 503.64 74.6505 500.51C75.5505 497.39 76.7405 493.23 77.6405 490.1C78.0905 488.54 78.6905 486.46 79.1405 484.9C80.0405 481.78 81.2305 477.62 82.1305 474.49C81.9805 475 82.3105 475.53 83.1805 476.02C85.7605 477.49 92.1205 478.1 97.3905 477.39C101.421 476.85 103.631 475.69 103.301 474.52C104.191 477.64 105.371 481.81 106.251 484.94C107.141 488.06 108.321 492.23 109.201 495.36C110.091 498.48 111.271 502.65 112.151 505.78C113.041 508.9 114.221 513.07 115.101 516.2C115.991 519.32 117.171 523.49 118.051 526.62C118.941 529.74 120.121 533.91 121.001 537.04C121.441 538.6 122.031 540.69 122.481 542.25C123.371 545.37 124.551 549.54 125.431 552.67C126.321 555.79 127.501 559.96 128.381 563.09C128.821 564.65 129.411 566.74 129.861 568.3C130.751 571.42 131.931 575.59 132.811 578.72C134.071 583.18 125.621 587.59 110.291 589.65C90.2405 592.35 66.0205 590 56.1905 584.42C52.9105 582.52 51.6505 580.51 52.2105 578.57Z" fill="#E8B909"/>
    <path d="M116.983 522.76C117.743 525.45 112.643 528.12 103.383 529.36C91.2732 530.99 76.6432 529.57 70.7132 526.2C68.7132 525.06 67.9532 523.85 68.2932 522.68C69.1932 519.56 70.3832 515.4 71.2832 512.27C71.7332 510.71 72.3332 508.63 72.7832 507.07C73.4032 504.91 74.2332 502.04 74.8532 499.88C74.6032 500.74 75.1632 501.63 76.6232 502.46C80.9732 504.93 91.6832 505.97 100.553 504.77C107.333 503.86 111.073 501.91 110.513 499.94C111.403 503.06 112.583 507.23 113.463 510.36C113.903 511.92 114.493 514.01 114.943 515.57C115.553 517.73 116.363 520.6 116.983 522.76Z" fill="white"/>
    <path d="M128.774 564.36C129.914 568.37 122.314 572.33 108.544 574.18C90.5336 576.6 68.7736 574.5 59.9336 569.48C56.9536 567.79 55.8336 565.98 56.3336 564.24C57.2336 561.12 58.4236 556.96 59.3236 553.83C59.7736 552.27 60.3736 550.19 60.8236 548.63C61.4436 546.47 62.2736 543.6 62.8936 541.44C62.4836 542.87 63.4036 544.35 65.8536 545.74C73.0936 549.86 90.9436 551.58 105.724 549.59C117.024 548.07 123.244 544.82 122.314 541.54L128.774 564.36Z" fill="white"/>
    <path d="M528.702 573.98C560.492 578.09 573.632 588.32 558.042 596.83C542.452 605.34 504.042 608.91 472.242 604.8C440.452 600.69 427.312 590.46 442.902 581.95C458.502 573.44 496.912 569.87 528.702 573.98Z" fill="#D7D7DD"/>
    <path d="M436.301 585.55C436.661 583.98 437.021 582.41 437.381 580.84C437.291 581.22 437.261 581.59 437.271 581.97C437.261 581.59 437.291 581.22 437.381 580.84C437.721 579.37 438.471 578.02 439.661 576.7C439.891 576.45 440.211 576.11 440.471 575.89C440.971 575.45 441.651 574.9 442.181 574.5C442.821 574.01 443.741 573.48 444.431 573.07C445.321 572.59 446.531 571.98 447.451 571.55C448.241 571.19 449.311 570.75 450.121 570.45C451.691 569.88 453.821 569.2 455.421 568.72C456.451 568.41 457.851 568.07 458.891 567.81C461.261 567.22 465.051 566.5 465.931 566.36C467.071 566.18 468.591 565.9 469.731 565.75C472.111 565.43 475.291 565.03 477.671 564.79C480.131 564.55 488.951 563.76 499.191 563.93C502.381 563.98 502.381 563.98 508.011 564.25C509.321 564.31 511.071 564.46 512.371 564.56C513.761 564.66 516.391 564.9 520.971 565.49C521.341 565.54 524.681 565.97 528.721 566.75C530.761 567.14 533.451 567.78 535.461 568.28C537.871 568.88 541.861 570.17 544.361 571.3C545.851 571.97 547.031 572.52 548.561 573.48C550.071 574.42 550.791 575.05 551.721 575.89C551.811 575.97 552.291 576.42 552.941 577.24C553.261 577.64 553.431 577.91 553.751 578.45C553.751 578.45 554.031 578.91 554.291 579.58C554.431 579.93 554.451 579.99 554.631 580.67C554.671 580.86 554.681 581.05 554.701 581.23C554.681 581.04 554.681 580.85 554.631 580.67C555.001 582.24 555.361 583.81 555.731 585.37C556.381 588.17 554.491 591.05 549.731 593.76C535.181 602.03 499.341 605.49 469.671 601.5C447.281 598.47 434.801 592.07 436.301 585.55Z" fill="#E8B909"/>
    <path d="M520.573 565.57C548.243 569.29 559.673 578.55 546.103 586.26C532.533 593.97 499.113 597.2 471.443 593.48C443.773 589.76 432.343 580.5 445.913 572.79C459.483 565.08 492.913 561.85 520.573 565.57ZM459.713 574.64C449.883 580.23 458.163 586.94 478.213 589.63C498.263 592.33 522.483 589.98 532.313 584.4C542.143 578.81 533.863 572.1 513.813 569.41C493.763 566.72 469.543 569.06 459.713 574.64Z" fill="#BC9106"/>
    <path d="M485.231 474.56C485.811 472.53 487.331 471.61 487.981 471.22C488.561 470.91 489.901 470.18 492.811 469.83C493.991 469.69 496.391 469.5 499.171 469.86C502.231 470.26 503.611 471.15 504.131 471.49C504.671 471.84 505.171 472.32 505.621 472.92C506.081 473.53 506.291 474.18 506.401 474.52C506.551 475.03 506.221 475.56 505.351 476.05C502.771 477.52 496.411 478.13 491.141 477.42C487.121 476.88 484.901 475.73 485.231 474.56Z" fill="#E8B909"/>
    <path d="M536.321 578.57C535.421 575.45 534.231 571.29 533.331 568.16C532.881 566.6 532.281 564.52 531.831 562.96C530.931 559.84 529.741 555.68 528.841 552.55C527.941 549.43 526.751 545.27 525.851 542.14C525.401 540.58 524.801 538.5 524.351 536.94C523.451 533.82 522.261 529.66 521.361 526.53C520.461 523.41 519.271 519.25 518.371 516.12C517.921 514.56 517.321 512.48 516.871 510.92C515.971 507.8 514.781 503.64 513.881 500.51C512.981 497.39 511.791 493.23 510.891 490.1C510.441 488.54 509.841 486.46 509.391 484.9C508.491 481.78 507.301 477.62 506.401 474.49C506.551 475 506.221 475.53 505.351 476.02C502.771 477.49 496.411 478.1 491.141 477.39C487.111 476.85 484.901 475.69 485.231 474.52C484.341 477.64 483.161 481.81 482.281 484.94C481.391 488.06 480.211 492.23 479.331 495.36C478.441 498.48 477.261 502.65 476.381 505.78C475.491 508.9 474.311 513.07 473.431 516.2C472.541 519.32 471.361 523.49 470.481 526.62C469.591 529.74 468.411 533.91 467.531 537.04C467.091 538.6 466.501 540.69 466.051 542.25C465.161 545.37 463.981 549.54 463.101 552.67C462.211 555.79 461.031 559.96 460.151 563.09C459.711 564.65 459.121 566.74 458.671 568.3C457.781 571.42 456.601 575.59 455.721 578.72C454.461 583.18 462.911 587.59 478.241 589.65C498.291 592.35 522.511 590 532.341 584.42C535.621 582.52 536.881 580.51 536.321 578.57Z" fill="#E8B909"/>
    <path d="M471.559 522.76C470.799 525.45 475.899 528.12 485.159 529.36C497.269 530.99 511.899 529.57 517.829 526.2C519.829 525.06 520.589 523.85 520.249 522.68C519.349 519.56 518.159 515.4 517.259 512.27C516.809 510.71 516.209 508.63 515.759 507.07C515.139 504.91 514.309 502.04 513.689 499.88C513.939 500.74 513.379 501.63 511.919 502.46C507.569 504.93 496.859 505.97 487.989 504.77C481.209 503.86 477.469 501.91 478.029 499.94C477.139 503.06 475.959 507.23 475.079 510.36C474.639 511.92 474.049 514.01 473.599 515.57C472.989 517.73 472.169 520.6 471.559 522.76Z" fill="white"/>
    <path d="M459.761 564.36C458.621 568.37 466.221 572.33 479.991 574.18C498.001 576.6 519.761 574.5 528.601 569.48C531.581 567.79 532.701 565.98 532.201 564.24C531.301 561.12 530.111 556.96 529.211 553.83C528.761 552.27 528.161 550.19 527.711 548.63C527.091 546.47 526.261 543.6 525.641 541.44C526.051 542.87 525.131 544.35 522.681 545.74C515.441 549.86 497.591 551.58 482.811 549.59C471.511 548.07 465.291 544.82 466.221 541.54L459.761 564.36Z" fill="white"/>
    <path d="M522.89 374.93L389.67 376.72L390.91 416.37L274.49 440.05L304.09 455.84L282.38 487.41L359.34 515.04L331.62 551.62L293.57 601.84C291.42 601.86 289.29 601.86 287.16 601.82L318.56 550.3L337.64 518.98L260.68 495.3L276.47 463.73L217.27 434.13L333.69 400.58L296.94 377.96L82.53 380.84L33.79 78.93L546.85 29.6L522.89 374.93ZM562.63 65.12L538.95 343.35L574.47 71.04L562.63 65.12ZM18.01 96.69L10.12 108.53L43.67 211.14L18.01 96.69ZM471.86 0L148.24 49.33L475.81 19.73L471.86 0ZM41.95 349.27L47.6 365.06H61.41L58.35 349.27H41.95ZM35.77 232.85H0.25L35.59 331.51H54.91L35.77 232.85ZM566.58 234.82H580.39L586.04 219.03H569.64L566.58 234.82ZM592.23 102.61L573.09 201.27H592.41L627.75 102.61H592.23V102.61Z" fill="#EFEFF1"/>
</svg>
    