<svg width="60" height="60" viewBox="0 0 60 60" fill="none" xmlns="http://www.w3.org/2000/svg">
    <g clip-path="url(#clip0_870_18330)">
        <path d="M10.8499 38.1808L9.85174 37.1826L6.64017 40.3942L5.81557 39.5696L4.81738 40.5678L6.64017 42.3906L10.8499 38.1808Z" fill="#F25757" />
        <path d="M19.4321 38.2242H13.5081V39.6347H19.4321V38.2242Z" fill="#F25757" />
        <path d="M19.4323 42.6727H9.75415V44.0832H19.4323V42.6727Z" fill="#F25757" />
        <path d="M19.4322 47.1212H4.71973V48.5316H19.4322V47.1212Z" fill="#F25757" />
        <path d="M19.4322 51.5804H4.71973V52.9909H19.4322V51.5804Z" fill="#F25757" />
        <path d="M40.4703 11.3707C40.4498 11.2801 40.4116 11.1945 40.358 11.1187C40.3043 11.043 40.2362 10.9785 40.1576 10.9291C40.0789 10.8797 39.9913 10.8463 39.8997 10.8309C39.8082 10.8154 39.7145 10.8182 39.624 10.8391C34.954 11.9096 30.1023 11.9096 25.4323 10.8391C25.3418 10.8182 25.2481 10.8154 25.1565 10.8309C25.065 10.8463 24.9774 10.8797 24.8987 10.9291C24.8201 10.9785 24.752 11.043 24.6983 11.1187C24.6447 11.1945 24.6065 11.2801 24.586 11.3707C24.5471 11.5548 24.5823 11.7467 24.6838 11.9051C24.7853 12.0634 24.945 12.1755 25.1285 12.217C29.9987 13.3309 35.0576 13.3309 39.9278 12.217C40.1098 12.173 40.2678 12.0604 40.3689 11.9027C40.47 11.7451 40.5063 11.5545 40.4703 11.3707Z" fill="#F25757" />
        <path d="M53.6528 38.7342L42.0434 32.4955C41.5114 32.2051 41.0674 31.7768 40.7582 31.2556C40.4489 30.7344 40.2857 30.1395 40.2857 29.5334V25.8119C41.3278 24.3577 42.0659 22.7081 42.4557 20.962C43.0831 20.9093 43.6656 20.6152 44.0804 20.1417C44.4953 19.6681 44.7102 19.052 44.6799 18.4231V17.4141C44.6878 16.9347 44.5621 16.4625 44.3168 16.0505C44.0715 15.6385 43.7164 15.3029 43.2911 15.0814C43.2911 14.6691 43.2369 14.2459 43.1826 13.8228C43.9491 13.5843 44.7024 13.3054 45.4394 12.9873L46.0036 12.7378L44.9186 9.0488L43.6275 9.4611C42.4223 6.24014 40.0203 3.60877 36.9222 2.11572C36.8864 1.55195 36.6463 1.02059 36.2468 0.621144C35.8474 0.221695 35.316 -0.0184406 34.7523 -0.0542603H30.4991C29.9353 -0.0184406 29.404 0.221695 29.0045 0.621144C28.6051 1.02059 28.3649 1.55195 28.3291 2.11572C25.2338 3.60916 22.8353 6.24089 21.6347 9.4611L20.3327 9.0488L19.2477 12.7378L19.8228 12.9873C20.5613 13.3109 21.3185 13.5899 22.0904 13.8228C22.0296 14.2401 21.9898 14.6601 21.9711 15.0814C21.5422 15.2994 21.1834 15.6339 20.9358 16.0465C20.6883 16.4591 20.562 16.933 20.5714 17.4141V18.4231C20.5411 19.052 20.756 19.6681 21.1709 20.1417C21.5858 20.6152 22.1682 20.9093 22.7956 20.962C23.1872 22.7109 23.925 24.3637 24.9656 25.8228V29.5334C24.9705 30.0007 24.8763 30.4637 24.6893 30.892C24.5023 31.3202 24.2267 31.704 23.8806 32.0181L18.0868 26.2242H1.46471C1.07811 26.2242 0.707213 26.3771 0.432831 26.6494C0.158449 26.9218 0.0028637 27.2915 0 27.6781V58.1772C0.0028637 58.5638 0.158449 58.9336 0.432831 59.2059C0.707213 59.4783 1.07811 59.6311 1.46471 59.6311H23.1645C23.5501 59.6311 23.9199 59.4779 24.1926 59.2053C24.4653 58.9326 24.6184 58.5628 24.6184 58.1772V55.3562L26.6148 58.34L27.7866 57.5588L24.6184 52.8174V42.1627L31.6166 58.2315H33.5262L43.66 34.9367L45.2875 35.8155L45.7541 42L40.4485 44.6257L43.4105 48.5099L37.3562 57.5588L38.528 58.34L45.1356 48.4557L42.6076 45.1247L47.2297 42.8463L46.7631 36.6076L53.0235 39.9819C54.7207 40.8917 56.139 42.2453 57.127 43.8982C58.1149 45.5512 58.6354 47.4414 58.6329 49.3671V57.9493H60.0434V49.3454C60.0369 47.1642 59.4391 45.0256 58.3138 43.157C57.1885 41.2885 55.5777 39.76 53.6528 38.7342ZM21.1031 10.8282L22.3291 11.2188L22.5569 10.5678C23.4922 7.66245 25.4767 5.20992 28.1229 3.68897V6.52078C28.1229 6.70782 28.1973 6.88721 28.3295 7.01947C28.4618 7.15173 28.6411 7.22602 28.8282 7.22602C29.0152 7.22602 29.1946 7.15173 29.3269 7.01947C29.4591 6.88721 29.5335 6.70782 29.5335 6.52078V2.46293C29.5026 2.20864 29.5728 1.9524 29.7291 1.74944C29.8854 1.54649 30.1152 1.41307 30.3689 1.37794H34.622C34.7483 1.39399 34.8701 1.43484 34.9805 1.49813C35.0909 1.56142 35.1877 1.6459 35.2654 1.74673C35.343 1.84756 35.3999 1.96275 35.4329 2.08566C35.4659 2.20857 35.4742 2.33678 35.4575 2.46293V6.52078C35.4575 6.70782 35.5318 6.88721 35.664 7.01947C35.7963 7.15173 35.9757 7.22602 36.1627 7.22602C36.3498 7.22602 36.5292 7.15173 36.6614 7.01947C36.7937 6.88721 36.868 6.70782 36.868 6.52078V3.68897C39.5149 5.21189 41.5022 7.66318 42.4448 10.5678L42.6727 11.2188L43.8879 10.8282L44.2242 11.9132C36.6754 14.8213 28.3155 14.8213 20.7667 11.9132L21.1031 10.8282ZM22.6763 19.5081C22.4235 19.4619 22.1954 19.3275 22.0325 19.1288C21.8695 18.9301 21.7824 18.68 21.7866 18.4231V17.4141C21.7776 17.1706 21.8508 16.9311 21.9945 16.7343C22.1382 16.5375 22.344 16.3947 22.5787 16.3291L23.1754 16.2206V15.613C23.1754 15.1682 23.1754 14.7233 23.2513 14.2676C29.2803 15.9806 35.6672 15.9806 41.6962 14.2676C41.7528 14.7211 41.7818 15.1777 41.783 15.6347V16.2315L42.3797 16.3291C42.6124 16.3968 42.8157 16.5403 42.9573 16.737C43.0989 16.9336 43.1706 17.172 43.1609 17.4141V18.4231C43.1651 18.68 43.078 18.9301 42.9151 19.1288C42.7521 19.3275 42.524 19.4619 42.2712 19.5081H41.0018V20.2134C41.0018 22.1121 37.8879 29.056 32.4412 29.056C26.9946 29.056 23.9023 22.1121 23.9023 20.2134V19.5081H22.6763ZM32.4412 30.4665C33.6469 30.4378 34.8337 30.1609 35.9276 29.6532C37.0215 29.1454 37.9991 28.4177 38.7993 27.5154V29.4901C38.7968 30.3582 39.0333 31.2103 39.4828 31.953L32.452 38.2568L25.5515 31.9855C25.9976 31.2453 26.2339 30.3977 26.2351 29.5334V27.5696C27.0284 28.4598 27.9943 29.1794 29.0742 29.6849C30.1541 30.1903 31.3255 30.471 32.5172 30.51L32.4412 30.4665ZM33.8083 44.1157H31.085L29.8915 42.2712L32.5823 40.1013L35.2188 42.1844L33.8083 44.1157ZM18.1844 28.5895L22.0795 32.4846H18.1844V28.5895ZM1.33452 58.1338L1.46471 27.6456H16.8716V32.5063C16.8716 32.8919 17.0248 33.2617 17.2974 33.5344C17.5701 33.807 17.9399 33.9602 18.3255 33.9602H23.1863V58.2315L1.33452 58.1338ZM24.575 33.0705L31.4213 39.2116L26.5063 43.0958L24.5642 38.6257L24.575 33.0705ZM28.7197 43.1392L29.9674 45.0163L29.2188 49.2803L27.1031 44.4195L28.7197 43.1392ZM32.528 56.9403L30.2495 51.689L31.3345 45.613H33.689L34.7739 51.8517L32.528 56.9403ZM35.783 49.4973L34.991 45.0054L36.2712 43.0741L37.953 44.3978L35.783 49.4973ZM38.5606 43.1392L33.6455 39.255L40.481 33.1139C40.7628 33.3682 41.0721 33.5901 41.4032 33.7757L42.3906 34.3074L38.5606 43.1392Z" fill="#F25757" />
    </g>
    <defs>
        <clipPath id="clip0_870_18330">
            <rect width="60" height="59.6311" fill="white" />
        </clipPath>
    </defs>
</svg>
    