<svg width="25" height="25" viewBox="0 0 25 25" fill="none" xmlns="http://www.w3.org/2000/svg">
    <path fill-rule="evenodd" clip-rule="evenodd" d="M12.5 14.5836H9.37501C8.80001 14.5836 8.33335 14.117 8.33335 13.542C8.33335 12.967 8.80001 12.5003 9.37501 12.5003H12.5C13.075 12.5003 13.5417 12.967 13.5417 13.542C13.5417 14.117 13.075 14.5836 12.5 14.5836ZM9.37501 16.667H15.625C16.2011 16.667 16.6667 17.1336 16.6667 17.7086C16.6667 18.2836 16.2011 18.7503 15.625 18.7503H9.37501C8.80001 18.7503 8.33335 18.2836 8.33335 17.7086C8.33335 17.1336 8.80001 16.667 9.37501 16.667ZM18.1712 20.8336H6.82845C6.5097 20.8336 6.25033 20.6003 6.25033 20.3128V4.68782C6.25033 4.40032 6.5097 4.16698 6.82845 4.16698H12.5003V7.44823C12.5003 9.08573 13.768 10.417 15.3274 10.417H18.7503V20.3128C18.7503 20.6003 18.4909 20.8336 18.1712 20.8336ZM14.5837 5.18573L17.4399 8.33365H15.3274C14.917 8.33365 14.5837 7.93677 14.5837 7.44823V5.18573ZM20.5628 8.67532L14.892 2.42532C14.6941 2.20761 14.4149 2.08365 14.1201 2.08365H6.82845C5.36074 2.08365 4.16699 3.2524 4.16699 4.68782V20.3128C4.16699 21.7482 5.36074 22.917 6.82845 22.917H18.1712C19.6389 22.917 20.8337 21.7482 20.8337 20.3128V9.37532C20.8337 9.11594 20.7368 8.86698 20.5628 8.67532Z" fill="#F25757" />
    <mask id="mask0_250_2211" style="mask-type:alpha" maskUnits="userSpaceOnUse" x="4" y="2" width="17" height="21">
        <path fill-rule="evenodd" clip-rule="evenodd" d="M12.5 14.5836H9.37501C8.80001 14.5836 8.33335 14.117 8.33335 13.542C8.33335 12.967 8.80001 12.5003 9.37501 12.5003H12.5C13.075 12.5003 13.5417 12.967 13.5417 13.542C13.5417 14.117 13.075 14.5836 12.5 14.5836ZM9.37501 16.667H15.625C16.2011 16.667 16.6667 17.1336 16.6667 17.7086C16.6667 18.2836 16.2011 18.7503 15.625 18.7503H9.37501C8.80001 18.7503 8.33335 18.2836 8.33335 17.7086C8.33335 17.1336 8.80001 16.667 9.37501 16.667ZM18.1712 20.8336H6.82845C6.5097 20.8336 6.25033 20.6003 6.25033 20.3128V4.68782C6.25033 4.40032 6.5097 4.16698 6.82845 4.16698H12.5003V7.44823C12.5003 9.08573 13.768 10.417 15.3274 10.417H18.7503V20.3128C18.7503 20.6003 18.4909 20.8336 18.1712 20.8336ZM14.5837 5.18573L17.4399 8.33365H15.3274C14.917 8.33365 14.5837 7.93677 14.5837 7.44823V5.18573ZM20.5628 8.67532L14.892 2.42532C14.6941 2.20761 14.4149 2.08365 14.1201 2.08365H6.82845C5.36074 2.08365 4.16699 3.2524 4.16699 4.68782V20.3128C4.16699 21.7482 5.36074 22.917 6.82845 22.917H18.1712C19.6389 22.917 20.8337 21.7482 20.8337 20.3128V9.37532C20.8337 9.11594 20.7368 8.86698 20.5628 8.67532Z" fill="white" />
    </mask>
    <g mask="url(#mask0_250_2211)">
        <rect y="0.000305176" width="25" height="25" fill="#F25757" />
    </g>
</svg>
    