<svg width="25" height="25" viewBox="0 0 25 25" fill="none" xmlns="http://www.w3.org/2000/svg">
<path d="M12.5007 11.4583C13.3247 11.4583 14.1303 11.214 14.8155 10.7561C15.5007 10.2983 16.0348 9.64754 16.3501 8.88618C16.6655 8.12483 16.748 7.28705 16.5873 6.47879C16.4265 5.67054 16.0296 4.92811 15.4469 4.34539C14.8642 3.76267 14.1218 3.36583 13.3135 3.20506C12.5053 3.04429 11.6675 3.12681 10.9061 3.44217C10.1448 3.75754 9.49403 4.29159 9.03619 4.97679C8.57836 5.662 8.33398 6.46758 8.33398 7.29167C8.33398 8.39674 8.77297 9.45655 9.55437 10.2379C10.3358 11.0193 11.3956 11.4583 12.5007 11.4583ZM12.5007 5.20834C12.9127 5.20834 13.3155 5.33052 13.6581 5.55944C14.0007 5.78836 14.2677 6.11373 14.4254 6.49441C14.5831 6.87509 14.6243 7.29398 14.544 7.69811C14.4636 8.10223 14.2651 8.47345 13.9738 8.76481C13.6824 9.05617 13.3112 9.25459 12.9071 9.33497C12.503 9.41536 12.0841 9.3741 11.7034 9.21642C11.3227 9.05874 10.9973 8.79171 10.7684 8.44911C10.5395 8.1065 10.4173 7.70371 10.4173 7.29167C10.4173 6.73913 10.6368 6.20923 11.0275 5.81853C11.4182 5.42783 11.9481 5.20834 12.5007 5.20834Z" fill="#E6B721"/>
<path d="M12.5007 13.5416C10.5668 13.5416 8.71212 14.3099 7.34466 15.6773C5.97721 17.0448 5.20898 18.8994 5.20898 20.8333C5.20898 21.1096 5.31873 21.3745 5.51408 21.5699C5.70943 21.7652 5.97438 21.875 6.25065 21.875C6.52692 21.875 6.79187 21.7652 6.98722 21.5699C7.18257 21.3745 7.29232 21.1096 7.29232 20.8333C7.29232 19.452 7.84105 18.1272 8.8178 17.1504C9.79456 16.1737 11.1193 15.625 12.5007 15.625C13.882 15.625 15.2067 16.1737 16.1835 17.1504C17.1603 18.1272 17.709 19.452 17.709 20.8333C17.709 21.1096 17.8187 21.3745 18.0141 21.5699C18.2094 21.7652 18.4744 21.875 18.7507 21.875C19.0269 21.875 19.2919 21.7652 19.4872 21.5699C19.6826 21.3745 19.7923 21.1096 19.7923 20.8333C19.7923 18.8994 19.0241 17.0448 17.6566 15.6773C16.2892 14.3099 14.4345 13.5416 12.5007 13.5416Z" fill="#E6B721"/>
</svg>
