<svg width="23" height="23" viewBox="0 0 23 23" fill="none" xmlns="http://www.w3.org/2000/svg">
<path fill-rule="evenodd" clip-rule="evenodd" d="M14.7053 20.7827C11.9186 20.7827 8.63979 19.3034 5.88633 16.5518C1.493 12.1576 0.346188 6.42167 3.27508 3.49278C4.14026 2.62852 5.19289 2.1022 6.40711 1.92676L7.10886 1.8252L9.69149 7.84733L7.10886 9.13819C7.70719 10.2721 8.61393 11.4438 9.80414 12.634C10.9389 13.7688 12.1098 14.6691 13.2852 15.3081L14.4985 12.9323L20.4846 13.7873L20.5197 14.5509C20.6074 16.4521 20.0626 18.0467 18.9445 19.164C17.8512 20.2573 16.3655 20.7827 14.7053 20.7827ZM5.99529 3.91568C5.46436 4.09388 4.98975 4.39028 4.58071 4.80025C2.45698 6.92305 3.65366 11.707 7.19196 15.2462C10.7321 18.7854 15.5151 19.9793 17.6388 17.8575C18.3461 17.1502 18.601 16.2176 18.6638 15.3921L15.5548 14.948L14.9583 16.1428C14.733 16.5934 14.3443 16.9249 13.8632 17.0754C13.3822 17.2277 12.8485 17.1732 12.4015 16.9304C11.0719 16.2074 9.75797 15.201 8.49759 13.9406C7.17719 12.6202 6.16242 11.3007 5.48006 10.0181C5.24275 9.57032 5.19751 9.05878 5.35079 8.57679C5.50406 8.09756 5.83555 7.71068 6.28522 7.48538L7.30646 6.97476L5.99529 3.91568Z" fill="white"/>
</svg>
