<svg width="23" height="24" viewBox="0 0 23 24" fill="none" xmlns="http://www.w3.org/2000/svg">
    <path fill-rule="evenodd" clip-rule="evenodd" d="M11.1095 1.81372C7.03751 1.81372 3.72266 5.12857 3.72266 9.20058C3.72266 14.3437 10.1492 21.5182 10.4262 21.8229L11.1095 22.58L11.7928 21.8229C12.0698 21.5182 18.4964 14.3437 18.4964 9.20058C18.4964 5.12857 15.1815 1.81372 11.1095 1.81372ZM11.1095 19.7915C9.0966 17.3815 5.56937 12.4693 5.56937 9.20058C5.56937 6.14427 8.0532 3.66044 11.1095 3.66044C14.1658 3.66044 16.6497 6.14427 16.6497 9.20058C16.6497 12.737 12.7254 17.8432 11.1095 19.7915ZM11.1095 9.20058C11.8759 9.20058 12.4946 8.58193 12.4946 7.81555C12.4946 7.04916 11.8759 6.43051 11.1095 6.43051C10.3431 6.43051 9.72448 7.05839 9.72448 7.81555C9.72448 8.58193 10.3431 9.20058 11.1095 9.20058ZM11.1095 10.1239C10.1862 10.1239 8.33944 10.5856 8.33944 11.509V11.6198C9.0135 12.3954 10.0015 12.894 11.1095 12.894C12.2175 12.894 13.2055 12.3954 13.8796 11.6198V11.509C13.8796 10.5856 12.0329 10.1239 11.1095 10.1239V10.1239Z" fill="white" />
</svg>
    