<svg width="60" height="54" viewBox="0 0 60 54" fill="none" xmlns="http://www.w3.org/2000/svg">
    <g clip-path="url(#clip0_870_18340)">
        <path d="M58.6193 23.9698H60L56.7638 9.28803H46.397V10.6904H55.6419L58.2848 22.5566H47.0658V19.1802H50.0971L44.52 13.8619V4.74649H38.5222V8.07983L30.054 0L20.3453 9.28803H3.27946L0.0432129 23.9698H1.43477V51.37H12.9882V53.1931H47.109V51.37H58.6624L58.6193 23.9698ZM57.2169 23.9698V46.6235H47.0658V23.9698H57.2169ZM39.8706 6.14886H43.1068V12.5027L39.8706 9.41748V6.14886ZM46.5912 17.7562H13.4089L30 1.92017L46.5912 17.7562ZM4.40133 10.6904H18.7919L9.91372 19.1802H12.945V22.589H1.74759L4.40133 10.6904ZM12.945 23.9698V46.6235H2.79401V23.9698H12.945ZM2.79401 49.9676V47.9827H12.945V49.9676H2.79401ZM33.3226 51.7907H26.6559V41.9417H33.2903L33.3226 51.7907ZM34.7249 51.7907V40.5394H25.2859V51.7907H14.3474V19.1802H45.6311V51.7907H34.7249ZM47.0658 49.9676V47.9827H57.2169V49.9676H47.0658Z" fill="#F25757" />
        <path d="M18.3171 27.9612H23.7109V22.5674H18.3171V27.9612ZM19.7195 23.9698H22.3409V26.5588H19.7518L19.7195 23.9698Z" fill="#F25757" />
        <path d="M27.3032 27.9612H32.697V22.5674H27.3032V27.9612ZM28.7056 23.9698H31.3054V26.5588H28.7056V23.9698Z" fill="#F25757" />
        <path d="M41.6936 22.5674H36.2998V27.9612H41.6936V22.5674ZM40.2912 26.5588H37.6914V23.9698H40.2912V26.5588Z" fill="#F25757" />
        <path d="M18.3171 37.1953H23.7109V31.8015H18.3171V37.1953ZM19.7195 33.1931H22.3409V35.7929H19.7518L19.7195 33.1931Z" fill="#F25757" />
        <path d="M27.3032 37.1953H32.697V31.8015H27.3032V37.1953ZM28.7056 33.2039H31.3054V35.7929H28.7056V33.2039Z" fill="#F25757" />
        <path d="M41.6936 31.7907H36.2998V37.1845H41.6936V31.7907ZM40.2912 35.7929H37.6914V33.2039H40.2912V35.7929Z" fill="#F25757" />
        <path d="M37.3462 48.6084H42.7399V43.2147H37.3462V48.6084ZM38.7486 44.617H41.3484V47.2276H38.7486V44.617Z" fill="#F25757" />
        <path d="M17.26 48.6084H22.6538V43.2147H17.26V48.6084ZM18.6624 44.617H21.2622V47.2276H18.6732L18.6624 44.617Z" fill="#F25757" />
        <path d="M54.8437 26.6667H49.45V32.0604H54.8437V26.6667ZM53.4413 30.6581H50.8415V28.0691H53.4413V30.6581Z" fill="#F25757" />
        <path d="M54.8437 41.3485V35.9547H49.45V41.3485H54.8437ZM50.8415 37.3463H53.4413V39.9461H50.8415V37.3463Z" fill="#F25757" />
        <path d="M10.561 26.6667H5.16724V32.0604H10.561V26.6667ZM9.15862 30.6581H6.5696V28.0691H9.15862V30.6581Z" fill="#F25757" />
        <path d="M10.561 41.3485V35.9547H5.16724V41.3485H10.561ZM6.5696 37.3463H9.15862V39.9461H6.5696V37.3463Z" fill="#F25757" />
    </g>
    <defs>
        <clipPath id="clip0_870_18340">
            <rect width="60" height="53.1931" fill="white" />
        </clipPath>
    </defs>
</svg>
    