<svg width="60" height="48" viewBox="0 0 60 48" fill="none" xmlns="http://www.w3.org/2000/svg">
    <g clip-path="url(#clip0_870_18364)">
        <path d="M14.1848 18.461H3.59491C3.4271 18.461 3.26616 18.5277 3.14749 18.6464C3.02883 18.765 2.96216 18.926 2.96216 19.0938V22.0559C2.96215 22.2243 3.0286 22.386 3.14707 22.5058C3.26554 22.6256 3.42646 22.6937 3.59491 22.6956H14.2195C14.388 22.6937 14.5489 22.6256 14.6674 22.5058C14.7859 22.386 14.8523 22.2243 14.8523 22.0559V19.0938C14.8524 19.0077 14.835 18.9225 14.801 18.8433C14.7671 18.7642 14.7173 18.6928 14.6549 18.6336C14.5924 18.5744 14.5185 18.5285 14.4376 18.4988C14.3568 18.4692 14.2708 18.4563 14.1848 18.461ZM13.5451 21.4232H4.19984V19.7335H13.5451V21.4232Z" fill="#F25757" />
        <path d="M14.1848 24.2948H3.59491C3.4271 24.2948 3.26616 24.3615 3.14749 24.4801C3.02883 24.5988 2.96216 24.7598 2.96216 24.9276V27.8827C2.96215 28.0512 3.0286 28.2129 3.14707 28.3326C3.26554 28.4524 3.42646 28.5206 3.59491 28.5224H14.2195C14.388 28.5206 14.5489 28.4524 14.6674 28.3326C14.7859 28.2129 14.8523 28.0512 14.8523 27.8827V24.9206C14.8515 24.8351 14.8333 24.7507 14.799 24.6723C14.7646 24.594 14.7147 24.5235 14.6523 24.465C14.59 24.4065 14.5164 24.3613 14.436 24.332C14.3556 24.3028 14.2702 24.2901 14.1848 24.2948ZM13.5451 27.2569H4.19984V25.5673H13.5451V27.2569Z" fill="#F25757" />
        <path d="M55.5429 -3.93559e-05H10.4091C9.22692 0.00179345 8.09361 0.471748 7.25704 1.30701C6.42047 2.14228 5.94876 3.27487 5.94508 4.45703V15.2625H0.639713C0.471251 15.2624 0.309581 15.3289 0.189811 15.4473C0.0700411 15.5658 0.00183111 15.7268 0 15.8952V46.8513C0.00183111 47.0197 0.0700411 47.1807 0.189811 47.2991C0.309581 47.4176 0.471251 47.484 0.639713 47.484H17.1051C17.2736 47.484 17.4352 47.4176 17.555 47.2991C17.6748 47.1807 17.743 47.0197 17.7448 46.8513V38.1944H27.9314V43.7154H26.1583C25.2363 43.7154 24.3519 44.0816 23.6999 44.7336C23.0479 45.3856 22.6817 46.2699 22.6817 47.192C22.6817 47.276 22.6982 47.3592 22.7303 47.4368C22.7625 47.5144 22.8096 47.5849 22.869 47.6443C22.9284 47.7037 22.999 47.7509 23.0766 47.783C23.1542 47.8152 23.2374 47.8317 23.3214 47.8317H42.6446C42.8142 47.8317 42.977 47.7643 43.0969 47.6443C43.2169 47.5244 43.2843 47.3617 43.2843 47.192C43.2843 46.2699 42.918 45.3856 42.266 44.7336C41.614 44.0816 40.7297 43.7154 39.8076 43.7154H38.0415V38.1944H55.5638C56.7453 38.1926 57.8779 37.7224 58.7134 36.887C59.5488 36.0515 60.019 34.9189 60.0209 33.7373V4.45703C60.0199 3.87022 59.9033 3.28935 59.6777 2.74765C59.4521 2.20594 59.1219 1.71402 58.706 1.30005C58.2901 0.886086 57.7967 0.55819 57.2539 0.335106C56.7112 0.112022 56.1297 -0.00186813 55.5429 -3.93559e-05ZM16.4654 46.2116H1.27943V16.5349H16.4654V46.2116ZM17.1051 15.2625H10.1935V4.45007H55.7446V34.0572H17.7448V15.8952C17.743 15.7268 17.6748 15.5658 17.555 15.4473C17.4352 15.3289 17.2736 15.2624 17.1051 15.2625ZM41.9075 46.5523H24.0445C24.1791 46.1015 24.4539 45.7054 24.8291 45.4216C25.2042 45.1377 25.6601 44.9809 26.1305 44.9739H39.759C40.2413 44.9706 40.7116 45.124 41.0991 45.4112C41.4867 45.6984 41.7704 46.1038 41.9075 46.5662V46.5523ZM36.7482 43.7014H29.2038V38.1805H36.7482V43.7014ZM58.7276 33.7235C58.7257 34.5675 58.3896 35.3764 57.7928 35.9733C57.1959 36.5701 56.387 36.9062 55.5429 36.9081H17.7448V35.3158H56.3912C56.5597 35.3158 56.7214 35.2493 56.8411 35.1309C56.9609 35.0124 57.0291 34.8515 57.0309 34.683V3.81733C57.0309 3.73333 57.0144 3.65013 56.9823 3.57252C56.9501 3.49491 56.903 3.42439 56.8436 3.36499C56.7842 3.30559 56.7137 3.25847 56.636 3.22632C56.5584 3.19417 56.4752 3.17762 56.3912 3.17762H9.55384C9.38539 3.17945 9.22445 3.24766 9.10598 3.36743C8.98751 3.4872 8.92108 3.64887 8.92109 3.81733V15.2625H7.22448V4.45703C7.22632 3.61298 7.56243 2.80403 8.15926 2.2072C8.75609 1.61037 9.56504 1.27426 10.4091 1.27243H55.5429C56.387 1.27426 57.1959 1.61037 57.7928 2.2072C58.3896 2.80403 58.7257 3.61298 58.7276 4.45703V33.7235Z" fill="#F25757" />
        <path d="M8.87229 30.9839C8.34182 30.9863 7.82979 31.1788 7.42905 31.5263C7.02831 31.8739 6.76541 32.3536 6.68803 32.8784C6.61066 33.4032 6.72393 33.9384 7.00731 34.3868C7.29068 34.8353 7.7254 35.1673 8.2326 35.3227V40.9549C8.2326 41.1246 8.29998 41.2873 8.41995 41.4073C8.53992 41.5272 8.70263 41.5946 8.87229 41.5946C9.04195 41.5946 9.20467 41.5272 9.32463 41.4073C9.4446 41.2873 9.512 41.1246 9.512 40.9549V35.3227C10.0192 35.1673 10.4539 34.8353 10.7373 34.3868C11.0206 33.9384 11.1339 33.4032 11.0565 32.8784C10.9792 32.3536 10.7163 31.8739 10.3155 31.5263C9.9148 31.1788 9.40276 30.9863 8.87229 30.9839ZM8.87229 34.1546C8.6833 34.156 8.49818 34.1011 8.34046 33.9969C8.18274 33.8928 8.05956 33.7441 7.9866 33.5697C7.91364 33.3954 7.89419 33.2033 7.93073 33.0178C7.96726 32.8324 8.05813 32.662 8.19177 32.5284C8.32541 32.3947 8.4958 32.3039 8.68123 32.2673C8.86666 32.2308 9.05877 32.2503 9.23311 32.3232C9.40746 32.3962 9.55617 32.5194 9.66031 32.6771C9.76445 32.8348 9.81932 33.0199 9.81795 33.2089C9.8143 33.4573 9.71306 33.6943 9.53611 33.8686C9.35916 34.043 9.1207 34.1407 8.87229 34.1407V34.1546Z" fill="#F25757" />
    </g>
    <defs>
        <clipPath id="clip0_870_18364">
            <rect width="60" height="47.8387" fill="white" />
        </clipPath>
    </defs>
</svg>
    