<svg width="25" height="25" viewBox="0 0 25 25" fill="none" xmlns="http://www.w3.org/2000/svg">
    <path fill-rule="evenodd" clip-rule="evenodd" d="M19.7917 19.0165C19.7917 19.4436 19.4438 19.7915 19.0167 19.7915H17.7083V17.7082H19.7917V19.0165ZM5.20833 19.0165V17.7082H7.29167V19.7915H5.98333C5.55625 19.7915 5.20833 19.4436 5.20833 19.0165ZM5.98333 5.20821H7.29167V7.29154H5.20833V5.98321C5.20833 5.55613 5.55625 5.20821 5.98333 5.20821ZM19.7917 5.98321V7.29154H17.7083V5.20821H19.0167C19.4438 5.20821 19.7917 5.55613 19.7917 5.98321ZM17.7083 15.6249H19.7917V13.5415H17.7083V15.6249ZM17.7083 11.4582H19.7917V9.37488H17.7083V11.4582ZM9.375 19.7915H15.625V5.20821H9.375V19.7915ZM5.20833 15.6249H7.29167V13.5415H5.20833V15.6249ZM5.20833 11.4582H7.29167V9.37488H5.20833V11.4582ZM19.0167 3.12488H5.98333C4.40729 3.12488 3.125 4.40821 3.125 5.98321V19.0165C3.125 20.5926 4.40729 21.8749 5.98333 21.8749H19.0167C20.5927 21.8749 21.875 20.5926 21.875 19.0165V5.98321C21.875 4.40821 20.5927 3.12488 19.0167 3.12488Z" fill="#F25757" />
    <mask id="mask0_250_3097" style="mask-type:alpha" maskUnits="userSpaceOnUse" x="3" y="3" width="19" height="19">
        <path fill-rule="evenodd" clip-rule="evenodd" d="M19.7917 19.0165C19.7917 19.4436 19.4438 19.7915 19.0167 19.7915H17.7083V17.7082H19.7917V19.0165ZM5.20833 19.0165V17.7082H7.29167V19.7915H5.98333C5.55625 19.7915 5.20833 19.4436 5.20833 19.0165ZM5.98333 5.20821H7.29167V7.29154H5.20833V5.98321C5.20833 5.55613 5.55625 5.20821 5.98333 5.20821ZM19.7917 5.98321V7.29154H17.7083V5.20821H19.0167C19.4438 5.20821 19.7917 5.55613 19.7917 5.98321ZM17.7083 15.6249H19.7917V13.5415H17.7083V15.6249ZM17.7083 11.4582H19.7917V9.37488H17.7083V11.4582ZM9.375 19.7915H15.625V5.20821H9.375V19.7915ZM5.20833 15.6249H7.29167V13.5415H5.20833V15.6249ZM5.20833 11.4582H7.29167V9.37488H5.20833V11.4582ZM19.0167 3.12488H5.98333C4.40729 3.12488 3.125 4.40821 3.125 5.98321V19.0165C3.125 20.5926 4.40729 21.8749 5.98333 21.8749H19.0167C20.5927 21.8749 21.875 20.5926 21.875 19.0165V5.98321C21.875 4.40821 20.5927 3.12488 19.0167 3.12488Z" fill="white" />
    </mask>
    <g mask="url(#mask0_250_3097)">
        <rect width="25" height="25" fill="#F25757" />
    </g>
</svg>